<svg xmlns="http://www.w3.org/2000/svg" viewBox="0 0 492.2 192.86"><defs><style>.a{fill:#0f3c5a}</style></defs><path class="a" d="M126.48 46.31l-16.55-1.76-4.49-.48H105l-.22.05h-.16l-.2.08-.15.08a.94.94 0 0 0-.18.12l-.13.09-.15.16-.11.11a1.37 1.37 0 0 0-.13.2l-.09.12a2.44 2.44 0 0 0-.1.24.61.61 0 0 1 0 .12 2.24 2.24 0 0 0-.08.39l-2.24 21a2.17 2.17 0 0 0 .07.81 1.94 1.94 0 0 0 .15.36 2.06 2.06 0 0 0 .49.61 2.11 2.11 0 0 0 1.1.47l14.3 1.52 6.73.72h.88l.19-.08.15-.08a.94.94 0 0 0 .18-.12l.13-.09.16-.16.11-.11a1.37 1.37 0 0 0 .13-.2.83.83 0 0 0 .08-.12c0-.08.07-.16.11-.25s0-.07 0-.11a1.59 1.59 0 0 0 .08-.39l2.25-21a2 2 0 0 0-1.87-2.3zM413 115l-50.14-5.35a39.58 39.58 0 0 0-4.06-.21 37.85 37.85 0 0 0-37.58 33.83 37.86 37.86 0 0 0 25.61 39.9c2.88-.79 5.81-1.57 9-2.29.91-.21 1.85-.41 2.8-.61l.59-.12 3-.58a158 158 0 0 1 30.34-2.36c.91 0 1.79 0 2.66.06h.85l1.71.07 1 .06c.51 0 1 .05 1.51.09l1 .07 1.43.11.92.08 1.43.14.85.09 1.57.18.64.08 2.16.29.51.08 1.64.24.83.14 1.32.22.9.15 1.27.23.92.17 1.28.24.93.17 1.34.27.89.17 1.5.3 2.93.6 5.56 1.12a37.77 37.77 0 0 0 14.61-26A37.85 37.85 0 0 0 413 115z"/><path d="M126.15 189.07c1.26-.19 2.54-.39 3.86-.63 21.9-3.91 31.41-11.28 67.29-11.28 48.81 0 48.81 13.65 97.62 13.65 35.87 0 45.38-7.38 67.28-11.29a156.55 156.55 0 0 1 23.37-2.33 100.62 100.62 0 0 0 12.21-38.49 100.92 100.92 0 0 0-89.64-111.06L207.78 16.93a100.93 100.93 0 0 0-111.06 89.64 100.73 100.73 0 0 0 29.43 82.5z" fill="#ffd728"/><path class="a" d="M126.15 189.07c1.26-.19 2.54-.39 3.86-.63l2.8-.53A95.45 95.45 0 0 1 207.2 22.34l100.37 10.71a95.5 95.5 0 0 1 71.53 144.44c2-.14 4.2-.24 6.47-.3a100.62 100.62 0 0 0 12.21-38.49 100.92 100.92 0 0 0-89.64-111.06L207.78 16.93a100.82 100.82 0 0 0-111.06 89.64 100.73 100.73 0 0 0 29.43 82.5z"/><path class="a" d="M115.77 146.66l-21-2.24h-.71l-.16.05-.2.08-.15.07-.18.12-.13.1-.16.16-.1.11-.14.19c0 .05 0 .08-.07.13a1.28 1.28 0 0 0-.11.24 1.17 1.17 0 0 1-.05.11 2.57 2.57 0 0 0-.08.4l-2.24 21a2 2 0 0 0 1 2 2.09 2.09 0 0 0 .78.24l21 2.25h.71l.17-.05.19-.08.15-.07.18-.12.13-.1a1.14 1.14 0 0 0 .16-.15l.11-.12a1.27 1.27 0 0 0 .13-.19l.08-.12c0-.08.07-.16.11-.25s0-.07 0-.11a1.8 1.8 0 0 0 .08-.39l2.14-20 .11-1.07a2 2 0 0 0-1.75-2.19z"/><ellipse cx="163.75" cy="94.69" rx="37.88" ry="28.38" transform="rotate(-83.91 163.744 94.697)" fill="#fff"/><path class="a" d="M165.48 61a16.56 16.56 0 0 1 1.86.1c6.23.66 11.81 4.64 15.71 11.19 4.12 6.93 5.85 15.81 4.87 25-1.86 17.46-13.24 31.14-25.89 31.14a16.74 16.74 0 0 1-1.87-.1c-6.23-.67-11.81-4.64-15.71-11.19-4.12-6.94-5.85-15.81-4.87-25C141.44 74.66 152.82 61 165.48 61m0-4.08c-14.69 0-27.84 15-29.95 34.78-2.22 20.81 8.61 39 24.2 40.68a19.7 19.7 0 0 0 2.3.13c14.68 0 27.84-15 29.95-34.78 2.22-20.81-8.62-39-24.21-40.69a22.1 22.1 0 0 0-2.29-.12z"/><circle class="a" cx="138.88" cy="60.28" r="6.31" transform="rotate(-83.91 138.876 60.283)"/><path class="a" d="M138.87 54a6.31 6.31 0 0 0-.66 12.58h.68a6.31 6.31 0 0 0 .66-12.58h-.68z"/><circle class="a" cx="132.18" cy="123.04" r="6.31" transform="rotate(-83.91 132.179 123.04)"/><path class="a" d="M132.17 116.73a6.31 6.31 0 0 0-.66 12.58 5.17 5.17 0 0 0 .68 0 6.31 6.31 0 0 0 .66-12.58 5.17 5.17 0 0 0-.68 0z"/><circle class="a" cx="135.53" cy="91.68" r="6.31" transform="rotate(-83.91 135.52 91.68)"/><path class="a" d="M135.52 85.37a6.31 6.31 0 0 0-.66 12.63 5.17 5.17 0 0 0 .68 0 6.31 6.31 0 0 0 .66-12.58h-.68z"/><rect x="193.99" y="52.68" width="138.76" height="75.69" rx="6.79" transform="rotate(-83.91 263.36 90.53)" fill="#d4d4d4"/><path class="a" d="M239.13 18.2v4.08a1.46 1.46 0 0 1 .29 0l61.75 6.59a2.71 2.71 0 0 1 2.42 3L290.3 156.34a2.7 2.7 0 0 1-2.69 2.43h-.3l-61.75-6.6a2.7 2.7 0 0 1-2.41-3l13.28-124.46a2.71 2.71 0 0 1 2.69-2.43V18.2m0 0a6.8 6.8 0 0 0-6.74 6.08l-13.29 124.46a6.8 6.8 0 0 0 6 7.48l61.75 6.59a6 6 0 0 0 .73 0 6.8 6.8 0 0 0 6.75-6.08l13.32-124.42a6.8 6.8 0 0 0-6-7.48l-61.75-6.59h-.73z"/><path d="M308 28.86l-12.9 120.86a6.79 6.79 0 0 1-11.47 4.17l-22.12-21.34a6.79 6.79 0 0 1-2-5.61L272.38 6.08a6.79 6.79 0 0 1 11.47-4.17L306 23.25a6.79 6.79 0 0 1 2 5.61z" fill-rule="evenodd" fill="#d4d4d4"/><path class="a" d="M279.17 4.08a2.6 2.6 0 0 1 1.85.77l22.12 21.33a2.68 2.68 0 0 1 .81 2.24l-12.89 120.86a2.72 2.72 0 0 1-2.75 2.44 2.59 2.59 0 0 1-1.84-.77l-22.12-21.33a2.71 2.71 0 0 1-.82-2.25l12.9-120.85a2.7 2.7 0 0 1 2.74-2.44m0-4.08a6.79 6.79 0 0 0-6.79 6.08l-12.9 120.86a6.79 6.79 0 0 0 2 5.61l22.12 21.34a6.68 6.68 0 0 0 4.67 1.91 6.79 6.79 0 0 0 6.8-6.08L308 28.86a6.79 6.79 0 0 0-2-5.61L283.85 1.91A6.68 6.68 0 0 0 279.17 0zM245.49 125a7.51 7.51 0 0 0-.71-1c-.08-.1-.17-.19-.26-.29s-.38-.41-.58-.6l-.33-.28a7.36 7.36 0 0 0-.63-.47 3.87 3.87 0 0 0-.34-.21 7.75 7.75 0 0 0-.81-.42l-.22-.1a8.69 8.69 0 0 0-1.09-.36h-.3a7.56 7.56 0 0 0-.83-.14H237.86a8.55 8.55 0 0 0-1.11.18 8 8 0 0 0-.32-7.47 6.73 6.73 0 0 0-.66-1 8.84 8.84 0 0 0-.72-.77l-.25-.21a6.36 6.36 0 0 0-.57-.46l-.29-.2c-.2-.13-.42-.25-.63-.37l-.26-.14a9.53 9.53 0 0 0-.93-.38h-.15c-.27-.08-.54-.15-.82-.21l-.32-.05c-.23 0-.46-.06-.69-.08h-1.37a7.2 7.2 0 0 0-1 .16 7.58 7.58 0 0 0 .53-1.47 8.06 8.06 0 0 0 .21-1.11 7.49 7.49 0 0 0 0-1.57 7.92 7.92 0 0 0-1.73-4.27 7.21 7.21 0 0 0-.59-.64c-.06-.07-.14-.13-.2-.19l-.44-.38-.26-.2c-.14-.1-.28-.2-.43-.29l-.29-.18-.44-.23-.31-.15-.47-.19-.3-.11-.52-.14-.28-.07c-.23-.05-.47-.09-.71-.12h-.1a7.37 7.37 0 0 0-.82 0h-.75l-.63.08H219l-.46.11-.27.08c-.14 0-.29.09-.43.15l-.27.1-.42.2-.25.12-.44.26-.21.12c-.21.14-.41.29-.61.45L205.05 109l-.41.32-.21.17a22.17 22.17 0 0 0-8.12 15 22.54 22.54 0 0 0 0 4.42 21.94 21.94 0 0 0 4.82 11.94 20.73 20.73 0 0 0 1.47 1.64 22 22 0 0 0 3.33 2.78c.6.41 1.22.78 1.85 1.13a22.62 22.62 0 0 0 5.1 2 23 23 0 0 0 3.23.61q1 .1 2.07.12h.37c.65 0 1.3 0 1.94-.09h.36c.56-.06 1.11-.13 1.66-.23.24 0 .46-.1.7-.15.43-.09.86-.19 1.29-.31l.75-.23c.4-.12.8-.26 1.19-.41l.75-.3c.39-.16.77-.34 1.15-.53l.7-.35c.4-.22.8-.46 1.19-.7l.57-.35c.57-.38 1.12-.78 1.66-1.21l.61-.49.45-.37 9.94-8a8.06 8.06 0 0 0 2.03-10.41zM253.44 42.75l-2.63-3.26-5.88-7.28-.3-.37-.19-.24c-.26-.32-.54-.61-.81-.92a22.21 22.21 0 0 0-14.17-7.21c-.7-.07-1.38-.1-2.07-.12H227c-.65 0-1.3 0-1.94.09h-.36c-.56.06-1.11.13-1.67.23l-.69.15c-.43.09-.87.19-1.29.31l-.76.23c-.4.13-.79.26-1.19.41l-.74.3-1.15.53-.7.35c-.41.22-.8.46-1.19.7l-.57.35c-.57.38-1.13.79-1.67 1.22a22 22 0 0 0-7.47 11.6 22.18 22.18 0 0 0-.65 3.38 22.53 22.53 0 0 0 0 4.42c.06.72.16 1.44.29 2.16a23 23 0 0 0 1.19 4.22 22 22 0 0 0 3.32 5.63l.18.23.31.38 3.22 4 5.17 6.4c.18.22.37.43.56.63l.19.18.46.4.21.17c.18.13.36.26.55.38l.14.1c.24.14.48.27.73.39l.19.09.58.24.25.08c.19.07.39.12.58.17l.23.06c.26.06.53.1.8.14h.11a5.74 5.74 0 0 0 .71 0h1.16a6.49 6.49 0 0 0 .86-.16h.18l.69-.24.23-.09a7.1 7.1 0 0 0 .83-.41 8 8 0 0 0 1.58-1.22 7.89 7.89 0 0 0 2.39-5.66 7.78 7.78 0 0 0-.19-1.86 6.91 6.91 0 0 0 1 .37l.31.09c.22.06.45.12.67.16l.36.06c.23 0 .45.06.68.07H236.16a6.81 6.81 0 0 0 .78 0h.17a8.05 8.05 0 0 0 1-.17 8.16 8.16 0 0 0 .95-.32l.18-.06c.3-.13.59-.28.88-.44l.16-.1a7 7 0 0 0 .86-.6 7.93 7.93 0 0 0 2.74-8 6.65 6.65 0 0 0 .61.27 8.1 8.1 0 0 0 2 .47 7.5 7.5 0 0 0 .82 0h.84l.57-.08.25-.06.46-.11.27-.08.42-.15.28-.11.4-.19.26-.13.42-.24.21-.13.58-.43a8 8 0 0 0 1.19-11.18zM364.22 45.58c-.3-.44-.61-.88-.94-1.3a22.41 22.41 0 0 0-4.81-4.43c-.6-.4-1.21-.78-1.85-1.12a22.57 22.57 0 0 0-8.33-2.57 20.49 20.49 0 0 0-2.06-.12h-.38c-.65 0-1.29 0-1.93.08h-.36c-.56.06-1.12.13-1.67.23l-.69.15c-.43.09-.87.19-1.29.31l-.76.22c-.4.13-.79.27-1.19.42-.25.09-.5.19-.74.3-.39.16-.78.34-1.16.53s-.46.22-.69.35c-.41.22-.8.45-1.19.7-.19.12-.39.22-.57.35a19.54 19.54 0 0 0-1.61 1.25l-.25.2-.36.3-5.2 4.19-5.2 4.19A8.1 8.1 0 0 0 319 60.29a8 8 0 0 0 .72 1l.25.27c.19.2.38.39.58.57l.32.26c.21.16.42.31.64.45l.32.2a8.16 8.16 0 0 0 .84.41l.17.08a8.25 8.25 0 0 0 1.07.33c.1 0 .21 0 .31.06.26.05.53.09.8.12h1.5a6.85 6.85 0 0 0 1.09-.17 8 8 0 0 0 1 8.42 7.65 7.65 0 0 0 .72.78l.24.21q.29.24.57.45l.29.2c.21.14.42.26.64.38l.25.13a7.28 7.28 0 0 0 .93.38h.15a7.79 7.79 0 0 0 .83.22h.32l.69.08h1.37a8.51 8.51 0 0 0 1-.17 7.88 7.88 0 0 0-.73 2.58 7.78 7.78 0 0 0 .53 3.83 6.29 6.29 0 0 0 .32.7 7.45 7.45 0 0 0 .87 1.31 7.26 7.26 0 0 0 .58.65l.21.19c.14.13.28.26.43.38l.27.2.42.29.3.17a3.75 3.75 0 0 0 .44.24l.3.15c.16.06.31.13.47.18l.31.11c.17.06.34.1.51.15l.28.07a5.65 5.65 0 0 0 .7.11H344.5q.31 0 .63-.09h.24l.47-.1.26-.08.43-.15.27-.11.42-.19.26-.12.43-.26.21-.13a6.37 6.37 0 0 0 .62-.44l10.54-8.51.3-.25.31-.24a22.36 22.36 0 0 0 4.29-30zM359.51 139.62a22.06 22.06 0 0 0-4.9-14.14l-.19-.23-.3-.38-8.39-10.39c-.19-.22-.38-.43-.58-.63l-.2-.19a5.73 5.73 0 0 0-.45-.39l-.22-.18a5.76 5.76 0 0 0-.51-.35l-.19-.13a7.58 7.58 0 0 0-.74-.4h-.11a6.5 6.5 0 0 0-.66-.27l-.25-.08-.55-.16-.27-.06c-.21 0-.41-.08-.62-.11h-.2a7.5 7.5 0 0 0-.82 0h-.14a7.34 7.34 0 0 0-.81 0h-.24a7.12 7.12 0 0 0-.92.18h-.08a8 8 0 0 0-.82.29l-.23.1a7.23 7.23 0 0 0-.87.46 8 8 0 0 0-3.56 8.61 7.45 7.45 0 0 0-.93-.36c-.1 0-.21-.06-.31-.09s-.45-.12-.68-.16a2.25 2.25 0 0 0-.36-.06 5.05 5.05 0 0 0-.68-.07h-1.43c-.32 0-.64.1-1 .17a8.1 8.1 0 0 0-.95.31l-.17.07a8.16 8.16 0 0 0-.89.44l-.15.1a7.1 7.1 0 0 0-.87.6 8 8 0 0 0-2.73 8 7.83 7.83 0 0 0-1.25-.47 7.45 7.45 0 0 0-1.33-.26 7.7 7.7 0 0 0-.83 0h-.84l-.58.08-.25.06a3.84 3.84 0 0 0-.46.11l-.27.08-.42.15-.31.13c-.14.05-.27.12-.41.18l-.25.13-.42.25-.21.13c-.2.13-.4.28-.59.43a8 8 0 0 0-1.2 11.18l8.51 10.54.5.61a21.25 21.25 0 0 0 2.93 3 22.12 22.12 0 0 0 12.05 5.13 20.49 20.49 0 0 0 2.06.12h.38c.65 0 1.29 0 1.94-.08h.36c.56-.06 1.11-.13 1.66-.23l.7-.15q.64-.14 1.29-.3l.75-.23c.4-.13.8-.27 1.19-.42l.75-.3c.39-.16.77-.34 1.15-.53s.47-.22.69-.35c.41-.21.8-.45 1.2-.7.19-.11.38-.22.57-.35.57-.38 1.12-.78 1.66-1.21a22.09 22.09 0 0 0 8-14c0-.33.12-.66.16-1 .04-.76.09-1.5.09-2.23zM490.16 192.86c-24.69 0-37.24-3.51-49.37-6.9-11.86-3.32-24.13-6.76-48.26-6.76s-36.39 3.44-48.26 6.76c-12.13 3.39-24.68 6.9-49.36 6.9s-37.23-3.51-49.36-6.9c-11.87-3.32-24.14-6.76-48.26-6.76s-36.4 3.44-48.29 6.8c-12.13 3.39-24.68 6.9-49.36 6.9s-37.23-3.51-49.36-6.9c-11.87-3.32-24.14-6.76-48.26-6.76a2 2 0 1 1 0-4.09c24.68 0 37.23 3.51 49.36 6.9 11.86 3.32 24.13 6.75 48.26 6.75s36.39-3.43 48.26-6.75c12.13-3.39 24.67-6.9 49.36-6.9s37.23 3.51 49.36 6.9c11.86 3.32 24.13 6.75 48.26 6.75s36.39-3.43 48.26-6.75c12.13-3.39 24.67-6.9 49.36-6.9s37.23 3.51 49.37 6.9c11.86 3.32 24.13 6.75 48.26 6.75a2.05 2.05 0 0 1 0 4.1z"/></svg>