<svg xmlns="http://www.w3.org/2000/svg" viewBox="0 0 217.86 298.34"><defs><style>.a,.b{fill:#0f3c5a}.b,.f{stroke:#0f3c5a;stroke-linecap:round;stroke-linejoin:round}.b{stroke-width:4.29px}.f{stroke-width:3.68px;fill:none}</style></defs><path class="a" d="M120.06 296.19a32.57 32.57 0 0 1-30.19-44.73L98.51 230a32.56 32.56 0 1 1 60.41 24.32l-8.64 21.46a32.42 32.42 0 0 1-30.22 20.41z"/><path class="a" d="M128.73 211.73a30.44 30.44 0 0 1 28.2 41.78L148.29 275a30.42 30.42 0 0 1-56.43-22.72l8.64-21.46a30.3 30.3 0 0 1 28.23-19.07m0-4.29a34.72 34.72 0 0 0-32.21 21.75l-8.64 21.47a34.71 34.71 0 1 0 64.39 25.92l8.64-21.46a34.72 34.72 0 0 0-32.18-47.68z"/><path class="b" d="M39.21 44.33l-24.17 1.72L2.15 35.5l24.17-1.71 12.89 10.54z"/><path d="M130.71 257.52A93.68 93.68 0 0 1 37 161.26a93.21 93.21 0 0 1-15.24-20.82 101.12 101.12 0 0 1-9.46-26.74C8.78 95.29 10 65.89 29.17 40.17c3.23-4.33 22.38-29.24 57.48-36 5.26-1 25.18-4.41 46.94 2.91 54.82 18.43 71.85 88.14 74.79 100.15C234.86 215.6 178 244.64 178 244.64a93.18 93.18 0 0 1-47.29 12.88z" stroke-width="4.91" fill="#ffd728" stroke="#0f3c5a" stroke-linecap="round" stroke-linejoin="round"/><path class="a" d="M70.31 246.13a21.31 21.31 0 0 1-19.51-29.54l5.87-13.88a6.2 6.2 0 0 1 11.47.09 6.37 6.37 0 0 1 .45 2 2.12 2.12 0 0 0 1.3 1.87 2.07 2.07 0 0 0 .84.17 2.16 2.16 0 0 0 1.42-.53 6.2 6.2 0 0 1 4.13-1.57 6 6 0 0 1 2.4.49 6.23 6.23 0 0 1 3.77 5.44 2.15 2.15 0 0 0 1.31 1.87 2.07 2.07 0 0 0 .84.17 2.12 2.12 0 0 0 1.42-.54 6.28 6.28 0 0 1 4.14-1.57 6.17 6.17 0 0 1 3.11.85 6.33 6.33 0 0 1 2.51 8L90 233.16a21.11 21.11 0 0 1-11.61 11.38 21.33 21.33 0 0 1-8.07 1.59z"/><path class="a" d="M62.4 201.07a4 4 0 0 1 1.57.32 4.06 4.06 0 0 1 2.47 3.61 4.31 4.31 0 0 0 2.62 3.75 4.23 4.23 0 0 0 1.67.34 4.31 4.31 0 0 0 2.84-1.09 4.07 4.07 0 0 1 2.71-1 4 4 0 0 1 1.56.31 4.1 4.1 0 0 1 2.47 3.57 4.28 4.28 0 0 0 2.62 3.75 4.19 4.19 0 0 0 1.67.34 4.27 4.27 0 0 0 2.84-1.08 4.13 4.13 0 0 1 2.72-1 4 4 0 0 1 2 .56 4.23 4.23 0 0 1 1.6 5.27l-5.47 12.93-.32.76a19.13 19.13 0 0 1-35.23-14.9l.32-.76 5.54-13.11a4.06 4.06 0 0 1 3.76-2.48m0-4.3a8.37 8.37 0 0 0-7.71 5.11L49.15 215l-.33.76A23.42 23.42 0 0 0 92 234l.32-.76 5.46-12.93a8.47 8.47 0 0 0-3.41-10.66 8.34 8.34 0 0 0-4.18-1.13 8.46 8.46 0 0 0-5.56 2.1 8.36 8.36 0 0 0-5.08-7.31 8.27 8.27 0 0 0-3.24-.66 8.41 8.41 0 0 0-5.55 2.11 8.34 8.34 0 0 0-5.09-7.32 8.45 8.45 0 0 0-3.24-.66zM149.27 242.33a21.52 21.52 0 0 1-17.44-8.91l-8.73-12.28a6.21 6.21 0 0 1 1.47-8.66 6.06 6.06 0 0 1 3.58-1.15 7.42 7.42 0 0 1 1 .08 6.34 6.34 0 0 1 2 .7 2.12 2.12 0 0 0 1 .27 2.13 2.13 0 0 0 2.11-2.51 6.26 6.26 0 0 1 2.51-6.12 6.12 6.12 0 0 1 3.57-1.14 6.35 6.35 0 0 1 3.05.78 2.11 2.11 0 0 0 1 .27 2.13 2.13 0 0 0 2.12-2.51 6.24 6.24 0 0 1 3.19-6.55 5.87 5.87 0 0 1 2.82-.71 6.53 6.53 0 0 1 5.28 2.76l8.61 12.12a21.23 21.23 0 0 1-17.24 33.56z"/><path class="a" d="M152.62 196a4.4 4.4 0 0 1 3.53 1.86l8.13 11.44.48.67a19.08 19.08 0 0 1-15.49 30.17 20.16 20.16 0 0 1-3.28-.27 19 19 0 0 1-12.41-7.74l-.48-.67-8.25-11.61a4.06 4.06 0 0 1 1-5.66 4 4 0 0 1 2.34-.76 4 4 0 0 1 .69.06 4.31 4.31 0 0 1 1.3.46 4.27 4.27 0 0 0 2.08.54 4.29 4.29 0 0 0 4.23-5 4.08 4.08 0 0 1 1.64-4 4 4 0 0 1 2.32-.74 4.26 4.26 0 0 1 2 .51 4.26 4.26 0 0 0 2.07.54 4.29 4.29 0 0 0 4.24-5 4.05 4.05 0 0 1 2.09-4.3 3.73 3.73 0 0 1 1.8-.45m0-4.29a8.13 8.13 0 0 0-3.84 1 8.38 8.38 0 0 0-4.29 8.81 8.33 8.33 0 0 0-12.27 8.72 8.19 8.19 0 0 0-2.66-.94 8.48 8.48 0 0 0-1.41-.12 8.36 8.36 0 0 0-6.8 13.2L129.6 234l.48.68a23.26 23.26 0 0 0 15.19 9.48 23.66 23.66 0 0 0 4 .34 23.44 23.44 0 0 0 19-37l-.48-.67-8.13-11.44a8.7 8.7 0 0 0-7-3.66z"/><path d="M25.4 146.61A67.2 67.2 0 0 0 37 161.26c2.13 2 3.72 3.29 4.09 3.58a52.78 52.78 0 0 0 18.61 9.09c22.13 6.43 44.53 4.15 44.53 4.15 29.89-3.05 52.53-16.34 64.43-24.62" stroke-width="3.68" fill="#ffd728" stroke="#0f3c5a" stroke-linecap="round" stroke-linejoin="round"/><path class="a" d="M38.3 181.52a6.53 6.53 0 0 1-5.61-3.37l-7.21-13A21.25 21.25 0 0 1 44 133.58a21.61 21.61 0 0 1 6 .85 21.12 21.12 0 0 1 12.76 10.08L70 157.68a6.21 6.21 0 0 1-7.14 9 6.14 6.14 0 0 1-1.89-.92 2.15 2.15 0 0 0-3.38 1.88 6.18 6.18 0 0 1-6.16 6.58 6.36 6.36 0 0 1-3.63-1.15 2.08 2.08 0 0 0-1.24-.4 2.12 2.12 0 0 0-1 .27 2.14 2.14 0 0 0-1.1 2 6.24 6.24 0 0 1-3.9 6.16 6 6 0 0 1-2.21.43z"/><path class="a" d="M44 135.73a19.66 19.66 0 0 1 5.36.76 19 19 0 0 1 11.47 9.06l.4.73 6.91 12.44a4.06 4.06 0 0 1-3.54 6 4.08 4.08 0 0 1-2.4-.72 4.29 4.29 0 0 0-6.76 3.76 4.1 4.1 0 0 1-2.08 3.8 3.91 3.91 0 0 1-1.94.51 4.16 4.16 0 0 1-2.39-.76 4.28 4.28 0 0 0-6.76 3.75 4 4 0 0 1-2.56 4 3.76 3.76 0 0 1-1.41.27 4.36 4.36 0 0 1-3.73-2.26l-6.81-12.27-.4-.72A19.09 19.09 0 0 1 44 135.73m0-4.29a23.46 23.46 0 0 0-20.4 34.76l.4.72 6.81 12.28a8.65 8.65 0 0 0 7.49 4.46 7.93 7.93 0 0 0 3-.58 8.35 8.35 0 0 0 5.24-8.27 8.42 8.42 0 0 0 4.87 1.55 8.34 8.34 0 0 0 8.3-8.86 8 8 0 0 0 2.54 1.23 8.36 8.36 0 0 0 9.61-12.09L65 144.19l-.4-.72a23.29 23.29 0 0 0-14.05-11.11 23.69 23.69 0 0 0-6.54-.92zM138.76 174.14a6.19 6.19 0 0 1-5.84-4.14 6.19 6.19 0 0 1-.35-2.06 2.15 2.15 0 0 0-2.15-2.15 2.13 2.13 0 0 0-1.34.47 6.26 6.26 0 0 1-3.92 1.39 6.13 6.13 0 0 1-2.66-.61 6.26 6.26 0 0 1-3.52-5.6 2.14 2.14 0 0 0-3.49-1.67 6.29 6.29 0 0 1-3.92 1.38 6.24 6.24 0 0 1-3.36-1 6.31 6.31 0 0 1-2.14-8.07l6.41-13.41a21.12 21.12 0 0 1 12.12-10.85 21.59 21.59 0 0 1 7.17-1.24 20.82 20.82 0 0 1 9.07 2.06 21.38 21.38 0 0 1 10 28.37l-6.49 13.59a6.25 6.25 0 0 1-5.59 3.54z"/><path class="a" d="M131.78 128.74a18.78 18.78 0 0 1 8.14 1.85 19.22 19.22 0 0 1 9 25.5l-.35.75-6.14 12.84a4.05 4.05 0 0 1-5.43 1.92 4 4 0 0 1-2.08-2.31 4.09 4.09 0 0 1-.23-1.36 4.28 4.28 0 0 0-2.44-3.86 4.18 4.18 0 0 0-1.85-.43 4.33 4.33 0 0 0-2.69 1 4.09 4.09 0 0 1-2.57.91 4 4 0 0 1-1.73-.39 4.08 4.08 0 0 1-2.3-3.68 4.29 4.29 0 0 0-2.44-3.86 4.34 4.34 0 0 0-1.85-.42 4.28 4.28 0 0 0-2.7.95 4.15 4.15 0 0 1-2.57.91 4 4 0 0 1-2.2-.66A4.22 4.22 0 0 1 108 153l6-12.66.35-.75a19.37 19.37 0 0 1 17.37-10.86m0-4.3a23.8 23.8 0 0 0-7.9 1.37 23.23 23.23 0 0 0-13.34 11.94l-.35.75-6 12.66a8.49 8.49 0 0 0 2.93 10.85 8.29 8.29 0 0 0 4.51 1.33 8.4 8.4 0 0 0 5.26-1.86 8.36 8.36 0 0 0 4.75 7.54 8.27 8.27 0 0 0 3.58.81 8.45 8.45 0 0 0 5.26-1.85 8.3 8.3 0 0 0 4.75 7.53 8.22 8.22 0 0 0 3.59.82 8.36 8.36 0 0 0 7.55-4.76l6.14-12.84.36-.75a23.41 23.41 0 0 0-21-33.5z"/><path d="M74.17 128.15c-16.31 0-29.41-9-30.47-21-.55-6.23 2.21-12.42 7.78-17.41 5.72-5.14 13.67-8.39 22.38-9.16 1.3-.11 2.61-.17 3.9-.17 16.31 0 29.4 9 30.47 21 .55 6.24-2.21 12.42-7.79 17.42S86.78 127.2 78.07 128c-1.3.09-2.62.15-3.9.15z" fill="#fff"/><path class="a" d="M77.76 78.54v3.68c15.35 0 27.66 8.32 28.63 19.35.5 5.64-2 11.28-7.17 15.88-5.43 4.87-13 8-21.32 8.69-1.24.11-2.5.17-3.74.17-15.34 0-27.65-8.32-28.63-19.35C44.47 94.9 57.25 83.87 74 82.38c1.24-.11 2.5-.16 3.73-.16v-3.68m0 0c-1.33 0-2.69.06-4.06.18-18.83 1.67-33.08 14.46-31.83 28.56C43 120.37 57.11 130 74.16 130c1.34 0 2.7-.06 4.07-.18 18.83-1.67 33.08-14.46 31.83-28.57-1.16-13.08-15.24-22.7-32.3-22.7z"/><path class="f" d="M40.84 81a5.7 5.7 0 1 0 11.4 0M97 76.12a5.7 5.7 0 1 0 11.4 0"/><path class="a" d="M71.37 83.64a3.55 3.55 0 1 1 2.52-1 3.49 3.49 0 0 1-2.51 1z"/><path class="a" d="M71.36 74.39a5.7 5.7 0 0 0 0 11.4 5.7 5.7 0 0 0 0-11.4z"/><path d="M52.83 104.82a45.43 45.43 0 0 0 21.5 4.71 47 47 0 0 0 25-8.38" fill="#fff" stroke-width="3.68" stroke="#0f3c5a" stroke-linecap="round" stroke-linejoin="round"/><path class="b" d="M150.15 38.2l-24.18 1.72-12.89-10.55 24.17-1.71 12.9 10.54z"/></svg>