<svg xmlns="http://www.w3.org/2000/svg" viewBox="0 0 469.73 412.34"><defs><style>.a{fill:none}.a,.b{stroke:#0f3c5a;stroke-linecap:round;stroke-linejoin:round;stroke-width:3.65px}.b,.c{fill:#0f3c5a}</style></defs><path class="a" d="M437.32 108.76l-55.72 43.36M459.94 76.13l-55.72 43.37"/><path class="b" d="M443.857 155.526l24.052 2.681-2.681 24.051-24.051-2.68z"/><path class="a" d="M336.51 1.82l-95.53 74.34M392.14 59.16L241.45 176.43M319.81 267.86L169.12 385.13M453.95 164.54L303.26 281.8M152.51 293.25L1.82 410.52M215 264.22L64.31 381.48M457.75 201.82l-109.86 85.49M337.38 221.91L186.69 339.18"/><path class="c" d="M154.57 334a46.2 46.2 0 0 1-30-81.38l25.67-21.85a46.21 46.21 0 1 1 59.9 70.39L184.48 323a46.19 46.19 0 0 1-29.91 11z"/><path class="c" d="M180.17 221.55A44.37 44.37 0 0 1 209 299.72l-25.7 21.84A44.39 44.39 0 0 1 125.76 254l25.67-21.85a44.4 44.4 0 0 1 28.74-10.56m0-3.65a47.83 47.83 0 0 0-31.1 11.44l-25.67 21.8a48 48 0 0 0 62.27 73.16l25.67-21.85a48 48 0 0 0-31.17-84.59z"/><rect x="174.6" y="37.18" width="209.66" height="314.49" rx="104.83" transform="rotate(52.11 279.422 194.42)" fill="#ffd728" stroke-width="4.86" stroke="#0f3c5a" stroke-linecap="round" stroke-linejoin="round"/><path class="c" d="M234.8 250.49a22 22 0 0 1-7.44-42.78l14.45-5.13a6.54 6.54 0 0 1 2.23-.39 6.67 6.67 0 0 1 4.74 11.4 1.83 1.83 0 0 0-.42 1.9 1.8 1.8 0 0 0 1.52 1.2 6.66 6.66 0 0 1 4 11.35 1.83 1.83 0 0 0-.42 1.9 1.8 1.8 0 0 0 1.52 1.2 6.68 6.68 0 0 1 1.36 13l-14.26 5.07a21.84 21.84 0 0 1-7.31 1.27z"/><path class="c" d="M244 204a4.88 4.88 0 0 1 4.59 3.24 4.81 4.81 0 0 1-.19 3.72 4.75 4.75 0 0 1-.95 1.34 3.64 3.64 0 0 0 2.2 6.19 4.85 4.85 0 0 1 2.93 8.26 3.64 3.64 0 0 0 2.2 6.19 4.91 4.91 0 0 1 4.26 3.81 5 5 0 0 1-3.33 5.68l-13.46 4.78-.79.28a20 20 0 0 1-6.7 1.16 20.21 20.21 0 0 1-6.76-39.22l.79-.28 13.66-4.86A5 5 0 0 1 244 204m0-3.64a8.57 8.57 0 0 0-2.84.49l-13.66 4.85-.79.28a23.8 23.8 0 0 0-2.24 44 23.65 23.65 0 0 0 18.21 1l.79-.28 13.53-4.83a8.64 8.64 0 0 0 5.66-9.89 8.52 8.52 0 0 0-7.44-6.65 8.49 8.49 0 0 0-5.12-14.45 8.51 8.51 0 0 0-6-14.51zM284.12 302.54A22.11 22.11 0 0 1 262.38 277l2.46-15.14a6.73 6.73 0 0 1 6.59-5.62 6.73 6.73 0 0 1 5.43 2.78 6.72 6.72 0 0 1 1 2 1.82 1.82 0 0 0 1.45 1.28h.3a1.82 1.82 0 0 0 1.49-.78 6.69 6.69 0 0 1 5.49-2.88 7.82 7.82 0 0 1 1.07.08 6.73 6.73 0 0 1 5.34 4.78 1.83 1.83 0 0 0 1.46 1.28h.29a1.85 1.85 0 0 0 1.5-.78 6.7 6.7 0 0 1 5.48-2.89 7 7 0 0 1 1.92.28 6.8 6.8 0 0 1 4.65 7.69L305.86 284a22.16 22.16 0 0 1-21.74 18.5z"/><path class="c" d="M271.43 258.05a4.22 4.22 0 0 1 .79.07 4.84 4.84 0 0 1 3.88 3.43 3.64 3.64 0 0 0 2.91 2.57 3.92 3.92 0 0 0 .59.05 3.64 3.64 0 0 0 3-1.56 4.85 4.85 0 0 1 4-2.1 5 5 0 0 1 .78.06 4.91 4.91 0 0 1 3.89 3.45 3.62 3.62 0 0 0 2.91 2.56 2.84 2.84 0 0 0 .58.05 3.63 3.63 0 0 0 3-1.56 4.87 4.87 0 0 1 4-2.1 4.77 4.77 0 0 1 1.39.2 5 5 0 0 1 3.38 5.64l-2.29 14.11-.14.83a20.34 20.34 0 0 1-19.95 17 20.69 20.69 0 0 1-3.23-.26 20.32 20.32 0 0 1-16.7-23.18l.13-.83 2.32-14.31a4.91 4.91 0 0 1 4.8-4.09m0-3.64a8.51 8.51 0 0 0-8.39 7.15l-2.33 14.31-.13.83a24 24 0 0 0 19.72 27.36 24.55 24.55 0 0 0 3.81.3 24 24 0 0 0 23.55-20l.13-.83 2.29-14.1a8.5 8.5 0 0 0-8.36-10.08 8.54 8.54 0 0 0-7 3.67 8.52 8.52 0 0 0-6.79-6 9.12 9.12 0 0 0-1.36-.11 8.53 8.53 0 0 0-7 3.66 8.7 8.7 0 0 0-1.26-2.58 8.46 8.46 0 0 0-5.54-3.42 8 8 0 0 0-1.37-.11zM297.93 186.6a6.88 6.88 0 0 1-6.49-5l-4.23-14.53a22 22 0 0 1 21.1-28.18 22.19 22.19 0 0 1 10.63 2.76 21.87 21.87 0 0 1 10.57 13.11l4.28 14.73a6.69 6.69 0 0 1-4.55 8.29 6.64 6.64 0 0 1-5.09-.56 6.59 6.59 0 0 1-1.76-1.41 1.83 1.83 0 0 0-1.36-.6 1.79 1.79 0 0 0-.51.07 1.83 1.83 0 0 0-1.29 1.45 6.74 6.74 0 0 1-4.72 5.34 6.83 6.83 0 0 1-1.85.26 6.75 6.75 0 0 1-5-2.24 1.84 1.84 0 0 0-1.36-.61 2.08 2.08 0 0 0-.5.07 1.81 1.81 0 0 0-1.29 1.46 6.72 6.72 0 0 1-5.56 5.53 7 7 0 0 1-1 .08z"/><path class="c" d="M308.31 140.7a20.39 20.39 0 0 1 19.45 14.55l.23.81L332 170a4.87 4.87 0 0 1-3.31 6 4.94 4.94 0 0 1-1.37.2 4.89 4.89 0 0 1-3.61-1.63 3.65 3.65 0 0 0-2.72-1.22 3.6 3.6 0 0 0-1 .15 3.67 3.67 0 0 0-2.58 2.9 4.89 4.89 0 0 1-3.41 3.9 5.1 5.1 0 0 1-1.34.19 4.9 4.9 0 0 1-3.64-1.64 3.65 3.65 0 0 0-2.72-1.21 3.48 3.48 0 0 0-1 .15 3.64 3.64 0 0 0-2.58 2.9 4.9 4.9 0 0 1-4 4 4.49 4.49 0 0 1-.73.06 5 5 0 0 1-4.74-3.71l-4-13.72-.24-.81a20.19 20.19 0 0 1 19.35-25.84m0-3.65a23.93 23.93 0 0 0-22.85 30.51l.24.81 4 13.72a8.7 8.7 0 0 0 8.24 6.33 8.35 8.35 0 0 0 1.31-.1 8.5 8.5 0 0 0 7.06-7 8.6 8.6 0 0 0 6.36 2.84 8.78 8.78 0 0 0 2.36-.33 8.54 8.54 0 0 0 6-6.79 8.66 8.66 0 0 0 2.24 1.79 8.51 8.51 0 0 0 12.22-9.8l-4.05-14-.23-.8a23.68 23.68 0 0 0-11.44-14.2 23.94 23.94 0 0 0-11.51-3zM357.91 234a21.57 21.57 0 0 1-4-.37l-15.08-2.79a6.69 6.69 0 0 1-2.58-12.09 6.77 6.77 0 0 1 2.06-.94 1.83 1.83 0 0 0 .6-3.23 6.67 6.67 0 0 1 2.2-11.85 1.82 1.82 0 0 0 .59-3.23 6.66 6.66 0 0 1 4.06-12.06 7 7 0 0 1 1.29.12l14.88 2.76a22 22 0 0 1-4 43.68z"/><path class="c" d="M345.76 189.21a5.2 5.2 0 0 1 1 .09l14 2.61.83.15a20.21 20.21 0 0 1-3.69 40.07 20.63 20.63 0 0 1-3.67-.34l-.83-.15-14.24-2.64a4.87 4.87 0 0 1-1.87-8.8 5.06 5.06 0 0 1 1.49-.68 3.64 3.64 0 0 0 1.2-6.46 4.85 4.85 0 0 1 1.6-8.62 3.65 3.65 0 0 0 1.2-6.46 4.89 4.89 0 0 1-1.78-5.43 5 5 0 0 1 4.76-3.34m0-3.64a8.48 8.48 0 0 0-5.13 15.35 8.5 8.5 0 0 0-2.8 15.08 8.51 8.51 0 0 0 .67 16.58l14.25 2.64.83.15a23.49 23.49 0 0 0 4.33.4 23.86 23.86 0 0 0 4.35-47.3l-.83-.15-14.05-2.6a8.88 8.88 0 0 0-1.62-.15z"/><path d="M383.67 183.7c-9.73 0-20.31-5-28.3-13.5-13.51-14.28-15.95-34-5.44-43.93a21.67 21.67 0 0 1 15.26-5.65c9.73 0 20.31 5 28.31 13.5 13.5 14.27 15.94 34 5.43 43.93a21.71 21.71 0 0 1-15.26 5.65z" fill="#fff"/><path class="c" d="M365.19 122.44c9.23 0 19.32 4.84 27 12.93 6.34 6.7 10.34 14.8 11.26 22.81.88 7.61-1.16 14.2-5.75 18.55a20 20 0 0 1-14 5.15c-9.23 0-19.32-4.84-27-12.93-12.82-13.55-15.29-32.1-5.51-41.36a19.92 19.92 0 0 1 14-5.15m0-3.64a23.54 23.54 0 0 0-16.51 6.14c-11.26 10.66-8.86 31.48 5.36 46.51 8.68 9.17 19.76 14.07 29.63 14.07a23.5 23.5 0 0 0 16.51-6.15c11.26-10.65 8.86-31.47-5.36-46.5-8.68-9.18-19.76-14.07-29.63-14.07z"/><path class="c" d="M413 158.08a4.42 4.42 0 0 1-4.42-4.53 4.45 4.45 0 0 1 1.38-3.09 4.41 4.41 0 0 1 3-1.21 4.42 4.42 0 0 1 0 8.83z"/><path class="c" d="M413 151.08a2.53 2.53 0 0 1 1.88.81 2.6 2.6 0 1 1-1.88-.81m0-3.65a6.24 6.24 0 1 0 4.53 1.95 6.24 6.24 0 0 0-4.53-1.95zM377 113.15a4.37 4.37 0 0 1-3.21-1.38 4.41 4.41 0 0 1-1.21-3.16 4.42 4.42 0 0 1 7.62-2.91 4.42 4.42 0 0 1-3.2 7.45z"/><path class="c" d="M377 106.14a2.6 2.6 0 1 1-1.89 4.38 2.59 2.59 0 0 1 1.89-4.38m0-3.64a6.24 6.24 0 1 0 4.53 2 6.21 6.21 0 0 0-4.53-2zM394.82 137.28a4.37 4.37 0 0 1-3.21-1.38 4.41 4.41 0 1 1 3.21 1.38z"/><path class="c" d="M394.82 130.27a2.56 2.56 0 0 1 1.88.81 2.59 2.59 0 0 1-.1 3.67 2.59 2.59 0 0 1-3.66-.1 2.59 2.59 0 0 1 1.88-4.38m0-3.64a6.24 6.24 0 1 0 4.53 2 6.19 6.19 0 0 0-4.53-2z"/><path class="b" d="M306.352 33.985l5.07-23.664 23.662 5.069-5.068 23.663z"/><path class="a" d="M391.22 19.23l-95.53 74.34M120.73 276.84l-24.02 18.7M264.48 321.73l-24.03 18.7M334.55 49.21L310.52 67.9M247.19 57.07l-55.72 43.36"/></svg>