<svg xmlns="http://www.w3.org/2000/svg" viewBox="0 0 374.96 209.64"><defs><style>.a{fill:#0f3c5a;stroke:#0f3c5a;stroke-linecap:round;stroke-linejoin:round;stroke-width:3.68px}</style></defs><path class="a" d="M338.578 25.031l22.47-12.058 12.057 22.47L350.636 47.5zM329.529 144.325l13.818-18.511 18.511 13.818-13.818 18.511z"/><rect class="a" x="8.41" y="51.17" width="63.64" height="84.85" rx="31.82" transform="rotate(141.72 40.23 93.593)"/><rect x="95.8" y="-30.95" width="181.01" height="271.53" rx="90.51" transform="rotate(74.84 186.311 104.82)" fill="#ffd728" stroke-width="4.91" stroke="#0f3c5a" stroke-linecap="round" stroke-linejoin="round"/><ellipse cx="277.7" cy="93.59" rx="39.13" ry="29.32" transform="rotate(-75.06 277.715 93.592)" fill="#fff" stroke-width="3.68" stroke="#0f3c5a" stroke-linecap="round" stroke-linejoin="round"/><circle class="a" cx="301.29" cy="123.48" r="5.77" transform="rotate(-67.38 301.31 123.48)"/><circle class="a" cx="266.59" cy="35.62" r="5.78" transform="rotate(-26.25 266.606 35.62)"/><circle class="a" cx="288.48" cy="80.01" r="6.28" transform="rotate(-75.89 288.504 80.005)"/><path fill="#d4d4d4" stroke-width="3.68" stroke="#0f3c5a" stroke-linecap="round" stroke-linejoin="round" d="M234.346 78.265l-60.604 106.942-58.334-33.058L176.01 45.207z"/><path fill-rule="evenodd" fill="#d4d4d4" stroke-width="3.68" stroke="#0f3c5a" stroke-linecap="round" stroke-linejoin="round" d="M155.5 158.41L103.52 32.38l29.64-25.63 61.43 148.94-39.09 2.72z"/><path class="a" d="M216.9 70.52a6.4 6.4 0 0 0 9.29 6.86 6.51 6.51 0 0 0 0 2.16 6.3 6.3 0 0 0 2.53 4.19 6.42 6.42 0 0 0 9-1.35l6.47-8.78.38-.51a18 18 0 0 0-28.9-21.31l-.37.51-6.48 8.78a6.4 6.4 0 0 0 8.16 9.45zM232.89 132.47a6.63 6.63 0 0 0-8.28 8.64 6.63 6.63 0 0 0-6.66 11.1l8.17 7.82.48.46a18.61 18.61 0 0 0 25.73-26.89l-.47-.46-8.18-7.82a6.63 6.63 0 0 0-10.79 7.15zM138.31 130.13a6.85 6.85 0 0 0-.37-12.38 7 7 0 0 0 1.86-1.4 6.78 6.78 0 0 0 1.86-4.92 6.89 6.89 0 0 0-7.08-6.66l-11.7.35h-.68a19.26 19.26 0 0 0 1.16 38.51h.68l11.71-.36a6.87 6.87 0 0 0 2.56-13.15zM93.53 100.93a7.37 7.37 0 0 0 11.66-6.42 7.43 7.43 0 0 0 2.24 1.1A7.39 7.39 0 0 0 116 85l-6.07-11-.35-.64a20.7 20.7 0 0 0-36.26 20l.35.64 6.07 11a7.38 7.38 0 0 0 13.83-4z"/><path fill="none" stroke-width="3.68" stroke="#0f3c5a" stroke-linecap="round" stroke-linejoin="round" d="M259.21 102.77l32.88 36.15"/></svg>