<svg xmlns="http://www.w3.org/2000/svg" viewBox="0 0 221.38 299.95"><defs><style>.a,.b{fill:#0f3c5a}.a,.f,.g{stroke:#0f3c5a;stroke-linecap:round;stroke-linejoin:round}.a{stroke-width:3.86px}.f,.g{stroke-width:3.68px}.f{fill:none}.g{fill:#d4d4d4}</style></defs><path class="a" d="M177.38 5.86h22.35v22.35h-22.35zM53.13 5.33h22.35v22.35H53.13z"/><path class="b" d="M68.72 297.8a29.92 29.92 0 0 1-25.88-44.88l10.69-18.51a29.91 29.91 0 0 1 54.8 7.22 29.69 29.69 0 0 1-3 22.7l-10.68 18.51a30 30 0 0 1-25.93 15z"/><path class="b" d="M79.46 221.6a27.77 27.77 0 0 1 24 41.66L92.8 281.77a27.75 27.75 0 0 1-37.94 10.16A27.76 27.76 0 0 1 44.7 254l10.69-18.51a27.86 27.86 0 0 1 24.07-13.89m0-4.3a32 32 0 0 0-27.79 16L41 251.85a32.06 32.06 0 1 0 55.53 32.06l10.67-18.51a32.07 32.07 0 0 0-11.73-43.8 32 32 0 0 0-16-4.3z"/><path d="M26.42 240.28a88.9 88.9 0 0 1 14.51-124.37 88.89 88.89 0 0 1 170.67-49.8 176.42 176.42 0 0 1 0 100.66 178.24 178.24 0 0 1-60.34 88.58 88.88 88.88 0 0 1-124.84-15.07z" fill="#ffd728" stroke-width="4.91" stroke="#0f3c5a" stroke-linecap="round" stroke-linejoin="round"/><path d="M123.51 83.2c-17.21 0-31.21-10.29-31.21-22.92s14-22.92 31.21-22.92 31.2 10.28 31.2 22.92-14 22.92-31.2 22.92z" fill="#fff"/><path class="b" d="M123.51 39.2c16.19 0 29.36 9.45 29.36 21.08s-13.17 21.08-29.36 21.08-29.37-9.46-29.37-21.08 13.17-21.08 29.37-21.08m0-3.68c-18.25 0-33.05 11.08-33.05 24.76S105.26 85 123.51 85s33-11.09 33-24.76-14.79-24.76-33-24.76z"/><path d="M143.79 52.45a36.56 36.56 0 0 1-40.53-.65" stroke-width="3.68" fill="#fff" stroke="#0f3c5a" stroke-linecap="round" stroke-linejoin="round"/><path class="f" d="M101.46 36.78a5.5 5.5 0 0 0-11 0M156.52 36.78a5.51 5.51 0 0 0-11 0"/><circle class="b" cx="123.51" cy="35.52" r="3.66"/><path class="b" d="M123.51 33.7a1.82 1.82 0 1 1-1.83 1.82 1.82 1.82 0 0 1 1.83-1.82m0-3.68a5.5 5.5 0 1 0 5.5 5.5 5.5 5.5 0 0 0-5.5-5.5zM96.41 216.94a19.68 19.68 0 0 1-2.16-.12 18.58 18.58 0 0 1-12.53-6.89l-8.25-10.34a5.4 5.4 0 0 1 .22-7.12 5.3 5.3 0 0 1 3.79-1.6 5.37 5.37 0 0 1 2.33.53 2.17 2.17 0 0 0 2.27-.25 2.16 2.16 0 0 0 .76-2.16 5.32 5.32 0 0 1 1.84-5.33 5.22 5.22 0 0 1 3.32-1.15 5.37 5.37 0 0 1 2.33.53 2.15 2.15 0 0 0 3-2.41 5.71 5.71 0 0 1-.11-1.79 5.3 5.3 0 0 1 9.4-2.7l8.38 10.48a18.78 18.78 0 0 1-3 26.27 18.35 18.35 0 0 1-11.59 4.05z"/><path class="b" d="M98.46 176.29a3.15 3.15 0 0 1 2.46 1.19l7.9 9.9.46.58a16.5 16.5 0 0 1-12.86 26.83 17.84 17.84 0 0 1-1.93-.11 16.41 16.41 0 0 1-11.09-6.09l-.46-.57-7.79-9.77a3.28 3.28 0 0 1 .08-4.28 3.09 3.09 0 0 1 2.25-1 3.26 3.26 0 0 1 1.4.32 4.22 4.22 0 0 0 1.86.43 4.3 4.3 0 0 0 4.19-5.25 3.19 3.19 0 0 1 1.07-3.14 3.06 3.06 0 0 1 1.94-.67 3.32 3.32 0 0 1 1.39.31 4.26 4.26 0 0 0 1.87.43 4.29 4.29 0 0 0 4.18-5.25 3.23 3.23 0 0 1-.06-1.07 3.15 3.15 0 0 1 3.12-2.79m0-4.29a7.44 7.44 0 0 0-7.39 6.6 7.53 7.53 0 0 0 .15 2.51 7.55 7.55 0 0 0-3.26-.75 7.42 7.42 0 0 0-7.22 9.11 7.43 7.43 0 0 0-8.58 1.5 7.55 7.55 0 0 0-.36 10l7.78 9.76.46.58A20.73 20.73 0 0 0 94 219a21.62 21.62 0 0 0 2.41.13 20.85 20.85 0 0 0 16.22-33.8l-.46-.57-7.9-9.91a7.44 7.44 0 0 0-5.82-2.8zM20.89 203.61a19.73 19.73 0 0 1-2.17-.12 18.7 18.7 0 0 1-9.57-33.16l10.34-8.25a5.66 5.66 0 0 1 3.5-1.22 5.14 5.14 0 0 1 3.62 1.44 5.3 5.3 0 0 1 1.07 6.12 2.15 2.15 0 0 0 1.94 3.08 2 2 0 0 0 .48-.06 5.94 5.94 0 0 1 1.19-.13 5.26 5.26 0 0 1 4.14 2 5.33 5.33 0 0 1 .57 5.59 2.15 2.15 0 0 0 2 3.1 2 2 0 0 0 .48-.06 5.55 5.55 0 0 1 1.21-.14 5.44 5.44 0 0 1 .57 0 5.3 5.3 0 0 1 2.71 9.4l-10.49 8.36a18.39 18.39 0 0 1-11.59 4.05z"/><path class="b" d="M23 163a3 3 0 0 1 2.12.84 3.11 3.11 0 0 1 .64 3.64 4.3 4.3 0 0 0 3.87 6.17 4.49 4.49 0 0 0 1-.11 2.81 2.81 0 0 1 .71-.08 3.1 3.1 0 0 1 2.46 1.17 3.16 3.16 0 0 1 .36 3.33 4.29 4.29 0 0 0 3.84 6.16 3.93 3.93 0 0 0 1-.11 3.63 3.63 0 0 1 .73-.08 1.83 1.83 0 0 1 .33 0 3.06 3.06 0 0 1 2.11 1.16 3.16 3.16 0 0 1-.5 4.42l-9.91 7.9-.57.46a16.27 16.27 0 0 1-10.24 3.57 15.61 15.61 0 0 1-1.93-.11A16.54 16.54 0 0 1 10.49 172l.58-.46 9.76-7.79A3.49 3.49 0 0 1 23 163m0-4.29a7.79 7.79 0 0 0-4.83 1.69l-9.77 7.79-.57.46a20.8 20.8 0 0 0 10.66 37 21.64 21.64 0 0 0 2.41.14 20.59 20.59 0 0 0 12.91-4.52l.58-.45 9.9-7.9a7.44 7.44 0 0 0 1.18-10.45 7.34 7.34 0 0 0-7.47-2.64 7.42 7.42 0 0 0-6.69-10.67 7.85 7.85 0 0 0-1.67.19 7.43 7.43 0 0 0-1.51-8.58 7.26 7.26 0 0 0-5.13-2.06z"/><path class="g" d="M94.84 127.71l48.2 25.61 17.21-74.81-48.2-25.61-17.21 74.81zM47.08 138.38l47.49-10.73 17.21-74.82-47.49 10.73-17.21 74.82z"/><path class="b" d="M156.34 129.8a18.27 18.27 0 0 1-7.58-1.64l-12.07-5.42a5.39 5.39 0 0 1-3.06-6.43 5.32 5.32 0 0 1 5-3.75 2.15 2.15 0 0 0 1.58-3.53 5.28 5.28 0 0 1 3.91-8.7 2.14 2.14 0 0 0 1.58-3.53 5.44 5.44 0 0 1-.91-1.53 5.3 5.3 0 0 1 7.12-6.71l12.22 5.5a18.66 18.66 0 0 1-1 34.49 18.81 18.81 0 0 1-6.79 1.25z"/><path class="b" d="M149.7 90.24a3 3 0 0 1 1.28.28l11.55 5.19.67.3a16.57 16.57 0 0 1-6.86 31.64 16.19 16.19 0 0 1-6.7-1.45l-.67-.3-11.4-5.12a3.29 3.29 0 0 1-1.89-3.84 3.12 3.12 0 0 1 2.95-2.23 4.32 4.32 0 0 0 3.81-2.54 4.26 4.26 0 0 0-.64-4.52 3.19 3.19 0 0 1-.48-3.33 3.13 3.13 0 0 1 2.8-1.84 4.29 4.29 0 0 0 3.17-7.06 3.16 3.16 0 0 1-.47-3.32 3.16 3.16 0 0 1 2.88-1.86m0-4.29a7.43 7.43 0 0 0-7 10.08 7.54 7.54 0 0 0 1.3 2.16 7.42 7.42 0 0 0-5.49 12.22 7.45 7.45 0 0 0-6.94 5.27 7.56 7.56 0 0 0 4.23 9l11.4 5.12.67.3a20.61 20.61 0 0 0 8.46 1.82 21.1 21.1 0 0 0 7.47-1.38A20.84 20.84 0 0 0 165 92.1l-.67-.3-11.55-5.2a7.46 7.46 0 0 0-3-.65zM55.18 113.22A18.7 18.7 0 0 1 52.46 76l13.08-1.9a5.66 5.66 0 0 1 .82-.06 5.39 5.39 0 0 1 5.23 3.83 5.32 5.32 0 0 1-2.15 5.82 2.14 2.14 0 0 0 .56 3.83A5.28 5.28 0 0 1 71.4 97a2.15 2.15 0 0 0 .56 3.83 5.14 5.14 0 0 1 1.6.81 5.29 5.29 0 0 1-2.39 9.48l-13.25 2a18 18 0 0 1-2.74.1z"/><path class="b" d="M66.36 76.19a3.22 3.22 0 0 1 3.16 2.25 3.15 3.15 0 0 1-1.28 3.48 4.28 4.28 0 0 0 1.13 7.65 3.19 3.19 0 0 1 2.19 2.54 3.13 3.13 0 0 1-1.37 3.07 4.29 4.29 0 0 0 1.14 7.65 3.15 3.15 0 0 1 1 .48 3.14 3.14 0 0 1 .64 4.4 3.11 3.11 0 0 1-2.06 1.23l-12.53 1.85-.73.11a16.55 16.55 0 0 1-4.83-32.75l.73-.1 12.35-1.83a4.36 4.36 0 0 1 .51 0m0-4.3a7.27 7.27 0 0 0-1.13.09L52.87 73.8l-.73.11a20.84 20.84 0 0 0 6.09 41.24L59 115l12.54-1.85a7.44 7.44 0 0 0 3.35-13.33 7.62 7.62 0 0 0-2.24-1.13 7.42 7.42 0 0 0-2-13.26 7.42 7.42 0 0 0 3-8.17 7.51 7.51 0 0 0-7.29-5.41z"/></svg>