<svg xmlns="http://www.w3.org/2000/svg" viewBox="0 0 252.28 279.55"><defs><style>.a,.b{fill:#0f3c5a}.a,.e{stroke:#0f3c5a;stroke-linecap:round;stroke-linejoin:round;stroke-width:3.68px}.e{fill:none}</style></defs><path class="a" d="M1.836 70.535l23.08-4.826 4.827 23.08-23.08 4.826zM106.49 18.504l16.673-16.673 16.673 16.673-16.673 16.674z"/><path class="b" d="M220.28 277.71a29.86 29.86 0 0 1-17.54-5.71l-17.25-12.4a30 30 0 1 1 35.14-48.75l17.25 12.43a30.06 30.06 0 0 1 6.81 42 30.18 30.18 0 0 1-24.41 12.48z"/><path class="b" d="M203.09 207a28.05 28.05 0 0 1 16.47 5.33l17.24 12.43a28.21 28.21 0 1 1-33 45.77l-17.25-12.43a28.21 28.21 0 0 1 16.54-51.1m0-3.68a31.89 31.89 0 0 0-18.67 57.76l17.24 12.43a31.87 31.87 0 0 0 44.52-7.22 31.88 31.88 0 0 0-7.18-44.5l-17.25-12.43a31.72 31.72 0 0 0-18.62-6z"/><rect x="47.22" y="10.59" width="176.96" height="265.43" rx="88.48" transform="rotate(-35.43 135.678 143.304)" fill="#ffd728" stroke-width="4.91" stroke="#0f3c5a" stroke-linecap="round" stroke-linejoin="round"/><path d="M88.37 90.29c-8.79 0-15.94-3.7-19.11-9.89-2.55-5-2.33-11 .62-17.06a34.65 34.65 0 0 1 15.56-15.17 36.47 36.47 0 0 1 16.5-4.17c8.8 0 15.94 3.69 19.11 9.89 2.55 5 2.33 11-.62 17.06a34.7 34.7 0 0 1-15.56 15.17 36.47 36.47 0 0 1-16.5 4.15z" fill="#fff"/><path class="b" d="M101.94 45.86c8.09 0 14.62 3.32 17.47 8.89 2.28 4.45 2 9.93-.63 15.41A32.85 32.85 0 0 1 104 84.5a34.58 34.58 0 0 1-15.66 4c-8.09 0-14.62-3.32-17.47-8.89-2.28-4.45-2.05-9.93.63-15.42A33 33 0 0 1 86.28 49.8a34.7 34.7 0 0 1 15.66-3.94m0-3.68a38.45 38.45 0 0 0-17.34 4.35c-15.2 7.77-22.8 23.32-17 34.71 3.62 7.08 11.58 10.89 20.74 10.89a38.42 38.42 0 0 0 17.34-4.35c15.2-7.78 22.8-23.32 17-34.71-3.62-7.07-11.58-10.89-20.74-10.89z"/><path class="b" d="M84.61 49.84A3.31 3.31 0 1 1 87.55 45a3.31 3.31 0 0 1-1.44 4.45 3.29 3.29 0 0 1-1.5.39z"/><path class="b" d="M84.6 45.06a1.47 1.47 0 0 1 .67 2.78 1.53 1.53 0 0 1-.66.16 1.47 1.47 0 0 1-.67-2.78 1.4 1.4 0 0 1 .66-.16m0-3.68a5.15 5.15 0 0 0 0 10.3 5 5 0 0 0 2.4-.57 5.15 5.15 0 0 0-2.35-9.73z"/><path class="e" d="M68.68 77.41a31.72 31.72 0 0 1 17-17.8c8.51-3.61 17-2.82 21.36-2.1M57.1 60.6l9.17-4.69M99.91 38.7l9.17-4.69"/><path class="b" d="M211.19 175.66c-.59 0-1.19 0-1.79-.09l-12.53-1.25a5.33 5.33 0 0 1-4.9-5.07 5.27 5.27 0 0 1 3.47-5.09 1.84 1.84 0 0 0 .32-3.3 5.23 5.23 0 0 1 .93-9.4 1.84 1.84 0 0 0 .33-3.31 5.13 5.13 0 0 1-1.34-1.15 5.25 5.25 0 0 1 4-8.57h.52l12.8 1.29a18 18 0 0 1-1.77 35.94z"/><path class="b" d="M199.73 140.27h.34l12 1.2.7.07a16.18 16.18 0 0 1-1.59 32.27c-.53 0-1.07 0-1.6-.08l-.7-.07-11.84-1.18a3.53 3.53 0 0 1-3.24-3.29 3.39 3.39 0 0 1 2.26-3.31 3.68 3.68 0 0 0 .65-6.6 3.39 3.39 0 0 1 .6-6.1 3.68 3.68 0 0 0 .65-6.61 3.37 3.37 0 0 1-1.62-3.24 3.44 3.44 0 0 1 3.38-3.07m0-3.68a7.08 7.08 0 0 0-3.67 13.14 7.06 7.06 0 0 0-1.25 12.7 7.08 7.08 0 0 0-4.68 6.86 7.21 7.21 0 0 0 6.56 6.87l11.84 1.17.69.07a18.7 18.7 0 0 0 2 .1 19.86 19.86 0 0 0 1.95-39.62l-.69-.07-12-1.19h-.71zM156.31 216.49h-1.26a18.11 18.11 0 0 1-16.72-19.22l.87-12.57a5.35 5.35 0 0 1 4.93-5h.3a5.24 5.24 0 0 1 4.89 3.32 1.83 1.83 0 0 0 1.58 1.16h.1a1.84 1.84 0 0 0 1.6-.93 5.24 5.24 0 0 1 4.55-2.67h.37a5.27 5.27 0 0 1 4.5 3.31 1.83 1.83 0 0 0 1.59 1.15h.12a1.86 1.86 0 0 0 1.6-.93 5.38 5.38 0 0 1 1.12-1.38 5.17 5.17 0 0 1 3.43-1.29h.38a5.18 5.18 0 0 1 3.59 1.79 5.24 5.24 0 0 1 1.28 3.8l-.89 12.74a18.11 18.11 0 0 1-18 16.77z"/><path class="b" d="M144.43 181.45a3.39 3.39 0 0 1 3.18 2.16 3.68 3.68 0 0 0 3.16 2.31h.23a3.7 3.7 0 0 0 3.2-1.86 3.42 3.42 0 0 1 3-1.74h.24a3.41 3.41 0 0 1 2.92 2.15 3.71 3.71 0 0 0 3.17 2.31h.25A3.69 3.69 0 0 0 167 185a3.39 3.39 0 0 1 .73-.9 3.34 3.34 0 0 1 2.22-.84h.25a3.42 3.42 0 0 1 3.16 3.64l-.83 12-.05.7a16.29 16.29 0 0 1-16.13 15.06h-1.13a16.28 16.28 0 0 1-15-17.26l.05-.69.83-11.87a3.54 3.54 0 0 1 3.19-3.34h.2m0-3.68H144a7.17 7.17 0 0 0-6.66 6.75l-.83 11.87v.7a20 20 0 0 0 18.44 21.18c.46 0 .92.05 1.38.05a20 20 0 0 0 19.8-18.48v-.7l.83-12a7.09 7.09 0 0 0-6.58-7.56h-.5a7 7 0 0 0-4.64 1.74 7.26 7.26 0 0 0-1.51 1.86 7.07 7.07 0 0 0-6.09-4.46h-.49a7.08 7.08 0 0 0-6.15 3.6 7.1 7.1 0 0 0-6.6-4.48zM125.62 128.37c-3.44 0-6.9-.16-10.3-.46a119.43 119.43 0 0 1-29.6-6.59c-1.26-.45-2.51-.92-3.76-1.42a17.82 17.82 0 0 1-3.5-1.86 5 5 0 0 1-1-3.84 5.25 5.25 0 0 1 4.32-4.38 1.84 1.84 0 0 0 1.46-1.3 1.86 1.86 0 0 0-.55-1.89 5.23 5.23 0 0 1 2.6-9.08 1.84 1.84 0 0 0 .92-3.19 5.23 5.23 0 0 1 2.35-9 17.66 17.66 0 0 1 3.62.38l2.53.72.45.17A86.92 86.92 0 0 0 107 90.32a80.93 80.93 0 0 0 11.51 1.88c2.43.22 4.9.33 7.32.33a83.43 83.43 0 0 0 33.59-7.19 17.66 17.66 0 0 1 7.18-1.51 17.92 17.92 0 0 1 7.2 34.34 121 121 0 0 1-36 9.56 119.42 119.42 0 0 1-12.23.64z"/><path class="b" d="M166.63 85.67a16.09 16.09 0 0 1 6.46 30.82 119.53 119.53 0 0 1-35.43 9.41 115.74 115.74 0 0 1-12 .63c-3.38 0-6.79-.16-10.13-.46a117.58 117.58 0 0 1-29.15-6.48c-1.28-.46-2.53-.93-3.7-1.4a15.91 15.91 0 0 1-2.87-1.48 3.25 3.25 0 0 1-.47-2.22 3.41 3.41 0 0 1 2.82-2.85 3.68 3.68 0 0 0 1.82-6.38 3.4 3.4 0 0 1 1.69-5.9A3.68 3.68 0 0 0 87.46 93a3.44 3.44 0 0 1-.73-.89 3.35 3.35 0 0 1-.29-2.59 3.39 3.39 0 0 1 2.37-2.34 17.4 17.4 0 0 1 3 .32l2.4.69.28.1a86.76 86.76 0 0 0 12.11 3.82A84.16 84.16 0 0 0 118.38 94c2.48.22 5 .33 7.48.33A85.16 85.16 0 0 0 160.19 87a15.93 15.93 0 0 1 6.44-1.35m0-3.68a19.69 19.69 0 0 0-7.92 1.66 81.42 81.42 0 0 1-32.85 7c-2.38 0-4.76-.1-7.15-.32a80.55 80.55 0 0 1-11.26-1.84 83.18 83.18 0 0 1-11.59-3.66l-.55-.2-2.66-.76a19.41 19.41 0 0 0-4.07-.43h-.18a7.08 7.08 0 0 0-4.89 10.39A7.22 7.22 0 0 0 85 95.74 7.07 7.07 0 0 0 81.5 108a7.08 7.08 0 0 0-5.83 5.91 6.93 6.93 0 0 0 1.51 5.47 20 20 0 0 0 4.1 2.23c1.27.5 2.54 1 3.81 1.43a121 121 0 0 0 30.06 6.69q5.22.47 10.47.47a120 120 0 0 0 12.42-.65 123.23 123.23 0 0 0 36.53-9.7A19.77 19.77 0 0 0 166.63 82z"/><path class="b" d="M124.36 86.18c-1.08 0-2.06 0-2.9-.06a86.38 86.38 0 0 0 3.11-11.93c0-.14.05-.27.08-.41l.73-2.53a18 18 0 0 1 1.62-3.31 5.25 5.25 0 0 1 3.75-1.58 5.07 5.07 0 0 1 1.44.21 5.23 5.23 0 0 1 3.14 2.5 5.31 5.31 0 0 1 .58 1.68 1.84 1.84 0 0 0 1.3 1.46 1.86 1.86 0 0 0 1.88-.54 5.28 5.28 0 0 1 3.91-1.76 5.46 5.46 0 0 1 1.45.2 5.28 5.28 0 0 1 3.71 4.19 1.87 1.87 0 0 0 1.3 1.46 1.81 1.81 0 0 0 .52.07 1.87 1.87 0 0 0 1.37-.61 5.21 5.21 0 0 1 6-1.33 5.08 5.08 0 0 1 2.73 2.86v1.93c-14.63 4.94-25.51 6.88-29.69 7.25-1.91.16-3.93.25-6 .25z"/><path class="b" d="M130.75 68.2a3.66 3.66 0 0 1 .93.13 3.37 3.37 0 0 1 2.41 2.72A3.7 3.7 0 0 0 136.7 74a3.58 3.58 0 0 0 1 .14 3.66 3.66 0 0 0 2.74-1.22 3.45 3.45 0 0 1 2.56-1.17 3.33 3.33 0 0 1 .94.13 3.43 3.43 0 0 1 2.41 2.72 3.66 3.66 0 0 0 2.6 2.93 3.6 3.6 0 0 0 1 .14 3.65 3.65 0 0 0 2.74-1.23 3.38 3.38 0 0 1 3.91-.86 3.19 3.19 0 0 1 1.63 1.57v.19c-13.85 4.59-24.07 6.41-28.05 6.75-1.86.17-3.83.25-5.86.25H124a88.84 88.84 0 0 0 2.41-9.81 3.4 3.4 0 0 1 .07-.34l.69-2.4a16.57 16.57 0 0 1 1.3-2.68 3.47 3.47 0 0 1 2.31-.9m0-3.68a7.14 7.14 0 0 0-5.21 2.28 19.22 19.22 0 0 0-1.89 3.83l-.77 2.65c0 .19-.09.38-.12.58a85.66 85.66 0 0 1-3.07 11.76c-.25.74-.52 1.47-.8 2.21 1 .07 3 .19 5.47.19 1.84 0 4-.07 6.18-.26 4.34-.38 15.75-2.41 31-7.63a1.07 1.07 0 0 1 .25 0 19.44 19.44 0 0 0 .15-3.72 7 7 0 0 0-3.83-4.18A7 7 0 0 0 150 74a7.1 7.1 0 0 0-5-5.64 7 7 0 0 0-2-.28 7.13 7.13 0 0 0-5.29 2.37 7.09 7.09 0 0 0-7-5.92zM99.44 160.7a17.92 17.92 0 0 1-11-32.1 107.76 107.76 0 0 0 27.6 5.69c2.57.19 5.17.28 7.73.28a107.9 107.9 0 0 0 11.56-.64 121.35 121.35 0 0 1-25.83 23.67 17.8 17.8 0 0 1-10.06 3.1z"/><path class="b" d="M88.83 130.67a109.42 109.42 0 0 0 27.09 5.46c2.62.18 5.26.28 7.86.28 2.4 0 4.83-.09 7.27-.25a119.26 119.26 0 0 1-22.58 19.91 16.08 16.08 0 0 1-19.64-25.4m-.52-4.24a19.76 19.76 0 0 0 22.23 32.68 123.1 123.1 0 0 0 27.63-25.78c.47-.6.93-1.21 1.39-1.81a106.86 106.86 0 0 1-15.78 1.2c-2.53 0-5.07-.09-7.59-.27a106.11 106.11 0 0 1-27.39-5.69 1.14 1.14 0 0 1-.49-.34zm51.25 5.1z"/></svg>