<svg xmlns="http://www.w3.org/2000/svg" viewBox="0 0 424.16 360.66"><defs><style>.a{fill:#d4d4d4}.b{fill:none}.b,.c{stroke:#0f3c5a;stroke-linecap:round;stroke-linejoin:round;stroke-width:3.65px}.c,.e{fill:#0f3c5a}</style></defs><path class="a" d="M334.59 274.48l-87.19 61.81a4.22 4.22 0 0 0 1.68 7.6l81.09 14.87a4.23 4.23 0 0 0 3.2-.7l87.19-61.81a4.23 4.23 0 0 0-1.68-7.6l-81.09-14.87a4.22 4.22 0 0 0-3.2.7z"/><path class="b" d="M334.59 274.48l-87.19 61.81a4.22 4.22 0 0 0 1.68 7.6l81.09 14.87a4.23 4.23 0 0 0 3.2-.7l87.19-61.81a4.23 4.23 0 0 0-1.68-7.6l-81.09-14.87a4.22 4.22 0 0 0-3.2.7z"/><path class="a" d="M332.16 266.44L245 328.25a4.22 4.22 0 0 0 1.68 7.59l81.09 14.88a4.23 4.23 0 0 0 3.2-.71l87.19-61.81a4.22 4.22 0 0 0-1.68-7.59l-81.09-14.88a4.18 4.18 0 0 0-3.23.71z"/><path class="b" d="M332.16 266.44L245 328.25a4.22 4.22 0 0 0 1.68 7.59l81.09 14.88a4.23 4.23 0 0 0 3.2-.71l87.19-61.81a4.22 4.22 0 0 0-1.68-7.59l-81.09-14.88a4.18 4.18 0 0 0-3.23.71z"/><path class="c" d="M313.43 235.71h-31.57l9.93-21.63h31.57l-9.93 21.63z"/><path d="M164.11 301.67a197.42 197.42 0 0 1-43.2-4.76 92.53 92.53 0 1 1 40.56-180.57 12.56 12.56 0 0 0 2.66.29 12.21 12.21 0 0 0 2.58-.28 12.4 12.4 0 0 0 4.62-2.16A92.51 92.51 0 0 1 301 131.62a92.65 92.65 0 0 1-17.44 129.7 198.32 198.32 0 0 1-76.26 35.58 196.93 196.93 0 0 1-43.19 4.77z" fill="#ffd728"/><path class="e" d="M227.4 92.78v4.86a91 91 0 0 1 39.38 9 90.13 90.13 0 0 1 15.33 152.74 195.87 195.87 0 0 1-75.32 35.14 195.89 195.89 0 0 1-85.35 0A90.11 90.11 0 1 1 161 118.71a14.25 14.25 0 0 0 11.85-2.59 89.27 89.27 0 0 1 54.59-18.48v-4.86m0 0a94.55 94.55 0 0 0-57.53 19.47 9.69 9.69 0 0 1-3.68 1.72 9.06 9.06 0 0 1-2.05.23 10 10 0 0 1-2.18-.2 95 95 0 1 0-41.64 185.31 199.41 199.41 0 0 0 164.69-36 95 95 0 0 0-57.66-170.53z"/><path class="c" d="M281.53 111.35h-31.57L245 89.71h31.56l4.97 21.64z"/><path class="b" d="M335.84 32.88c-2.32-6.46 3.55-13.68 10.32-14.81 6.4-1.08 13.5 2.47 15.83 8.52s-1.05 13.89-7.27 15.74c-3 .89-7.08-.18-7.76-3.26a5.34 5.34 0 0 1 1.49-4.58c3-3.28 8.7-3.27 12.08-.37s4.36 8 2.86 12.23a15.54 15.54 0 0 1-9.39 8.94c-3.08 1.15-6.76 1.41-9.5-.41.71-3.38 6.43-3.11 7.83 0s-.58 6.92-3.32 9c-5.79 4.45-14.43 3.63-20.53-.39-5.46-3.59-9.43-9.94-8.79-16.43s6.87-12.36 13.32-11.35c-6.2 5.57-12.9 8.37-16.28 6.18-4.75-3.07-1-15.26 1.22-20.52.54-1.28 8.81-20.35 21.39-19.6a14.6 14.6 0 0 1 10.47 5.73c.26.34 4.31 5.83 2.5 12.31-1.64 5.86-6.62 8.21-14.69 10.91a3.7 3.7 0 0 1-2.57.17c-2.25-1-.8-4.45 1.12-6 5.07-4 13.57-5.33 17.37-.07 3.45 4.77.71 11.6-3.19 16a36.23 36.23 0 0 1-11.58 8.7 15.43 15.43 0 0 1-8.24 1.81c-2.83-.32-5.63-2.17-6.37-4.92a7.47 7.47 0 0 1 .58-4.91 11.12 11.12 0 0 1 14.69-5.09c5.86 3.06 7.53 11.52 4.22 17.25s-10.4 8.58-17 8.07-13.6-5.55-12.77-12.06c.36-2.87 2.18-5.33 4.11-7.49a55.52 55.52 0 0 1 8.44-7.7c3.69-2.73 8-5.07 12.62-4.73s9.1 4.34 8.48 8.89c-.47 3.47-5.37 5.16-8.23 6.17a28 28 0 0 1-18.95-.51c-1.91-.82-14.22-6.4-14.78-17.45A17.56 17.56 0 0 1 311.63 13c8.14-6.7 24.33-4.35 38.82 7.56M315.23 87l-.06-6.33a3.78 3.78 0 0 1 .26-1.71 3.22 3.22 0 0 1 1.71-1.33 11.15 11.15 0 0 1 10 .63 9.26 9.26 0 0 1 4.34 8.83 4.34 4.34 0 0 1-.83 2.15 4.49 4.49 0 0 1-1.94 1.28 8 8 0 0 1-6.42-.15A5.82 5.82 0 0 1 319 85a4.57 4.57 0 0 1 4.23-4.27 2.81 2.81 0 0 1 2.25.94 2.89 2.89 0 0 1-.12 3.33 8.54 8.54 0 0 1-2.73 2.25c.69-.26 1.45.44 1.5 1.17a2.76 2.76 0 0 1-.89 2 7.86 7.86 0 0 1-12.37-1 13.15 13.15 0 0 1-1.73-4.77c-.7-3.51-.89-7.38 1-10.44s6.34-4.7 9.15-2.49a7.47 7.47 0 0 1 2.21 3.34c1.06 2.84.82 6.72-1.9 8M296.17 97.54a7.77 7.77 0 0 1-.45-3.68 2.66 2.66 0 0 1 2.55-2.29c1.74.14 2.42 2.33 2.43 4.08a8.24 8.24 0 0 1-.85 4.08 3.82 3.82 0 0 1-3.43 2.06 2.54 2.54 0 0 1-2.35-2.87 4.18 4.18 0 0 1 1.32-1.92 3.89 3.89 0 0 1 2.18-1.31c.86-.08 1.82.73 1.53 1.55"/><path class="e" d="M71.73 262.41a41.31 41.31 0 0 1-8.35-.86l-29.18-6.06A40.65 40.65 0 0 1 42.38 175a41.38 41.38 0 0 1 8.35.86L79.9 182a40.65 40.65 0 0 1-8.17 80.45z"/><path class="e" d="M42.38 176.86a39.18 39.18 0 0 1 8 .83l29.17 6.06a38.82 38.82 0 1 1-15.78 76l-29.19-6.05a38.83 38.83 0 0 1 7.8-76.84m0-3.64a42.47 42.47 0 0 0-8.55 84L63 263.33a43 43 0 0 0 8.72.9 42.47 42.47 0 0 0 8.55-84.05l-29.17-6.06a43 43 0 0 0-8.72-.9z"/></svg>