<svg xmlns="http://www.w3.org/2000/svg" viewBox="0 0 267.99 338.61"><defs><style>.a{fill:#0f3c5a}.e{stroke:#0f3c5a;stroke-linecap:round;stroke-linejoin:round;stroke-width:3.65px;fill:none}</style></defs><path class="a" d="M256.65 78.79a.73.73 0 0 1-.3-.06l-19.54-8.79a.73.73 0 0 1-.37-1l8.79-19.55a.74.74 0 0 1 .67-.43.73.73 0 0 1 .29.07l19.55 8.79a.73.73 0 0 1 .36 1l-8.79 19.54a.73.73 0 0 1-.66.43z"/><path class="a" d="M246.44 51.18L264 59.07l-7.9 17.54-17.55-7.89 7.89-17.54m-.54-4a2.54 2.54 0 0 0-2.33 1.51l-8.79 19.54a2.55 2.55 0 0 0 1.28 3.37l19.54 8.79a2.6 2.6 0 0 0 1 .22 2.54 2.54 0 0 0 2.32-1.5l8.79-19.54a2.54 2.54 0 0 0-1.28-3.37l-19.54-8.79a2.42 2.42 0 0 0-1-.23zM150.07 31.61a.59.59 0 0 1-.29-.07l-19.54-8.78a.74.74 0 0 1-.39-.41.73.73 0 0 1 0-.56l8.79-19.54a.73.73 0 0 1 .66-.43.6.6 0 0 1 .3.07l19.54 8.79a.7.7 0 0 1 .38.4.72.72 0 0 1 0 .56l-8.79 19.54a.73.73 0 0 1-.66.43z"/><path class="a" d="M139.87 4l17.55 7.89-7.89 17.54L132 21.54 139.87 4m-.55-4A2.54 2.54 0 0 0 137 1.5l-8.79 19.55a2.54 2.54 0 0 0 1.28 3.37L149 33.21a2.56 2.56 0 0 0 3.37-1.28l8.79-19.54A2.56 2.56 0 0 0 159.91 9L140.37.23a2.46 2.46 0 0 0-1.05-.23zM131.51 316.79a32.83 32.83 0 0 1-32.74-31l-.14-2.45a77.52 77.52 0 0 0 4.93-4.09l4.09-2.17a36.48 36.48 0 0 0 15-49.35 33.17 33.17 0 0 1 5.71-.83h1.86a32.84 32.84 0 0 1 32.74 31l1.35 24.28a32.86 32.86 0 0 1-31 34.61c-.62 0-1.24.05-1.86.05z"/><path class="a" d="M130.24 228.66A31 31 0 0 1 161.16 258l1.35 24.28a31 31 0 0 1-29.24 32.69c-.59 0-1.18.05-1.76.05a31 31 0 0 1-30.92-29.29l-.09-1.5c1.43-1.11 2.81-2.26 4.11-3.43l3.89-2.08a38.28 38.28 0 0 0 16.85-49.62 29.94 29.94 0 0 1 3.13-.34c.58 0 1.18-.05 1.76-.05m0-3.64h-2a34.49 34.49 0 0 0-8.37 1.52c.4.64.79 1.3 1.16 2a34.67 34.67 0 0 1-14.27 46.89l-4.28 2.28q-2.74 2.47-5.75 4.72l.19 3.42a34.65 34.65 0 0 0 34.56 32.73c.65 0 1.31 0 2-.05A34.7 34.7 0 0 0 166.15 282l-1.35-24.28A34.67 34.67 0 0 0 130.24 225zM69.08 289.15a32.82 32.82 0 0 1-15.51-61.79L75 215.91a32.82 32.82 0 0 1 42 9.73 36.42 36.42 0 0 0-23.22 36.06l.94 17a82.73 82.73 0 0 1-9.63 6.3l-.62.33a32.84 32.84 0 0 1-15.39 3.85z"/><path class="a" d="M90.41 213.88a31.34 31.34 0 0 1 23.76 11A38.24 38.24 0 0 0 92 261.8l.89 16a80.93 80.93 0 0 1-8.62 5.55l-.61.33A31 31 0 1 1 54.43 229l21.45-11.45a31.05 31.05 0 0 1 14.53-3.64m0-3.65a34.45 34.45 0 0 0-16.24 4.07l-21.46 11.42a34.65 34.65 0 1 0 32.62 61.15l.65-.34a83.32 83.32 0 0 0 10.61-7l-1-17.94a34.7 34.7 0 0 1 24.3-35 34.69 34.69 0 0 0-29.49-16.36z"/><path class="a" d="M97.42 261.5a32.78 32.78 0 0 1 21.67-32.72c.13.22.25.44.36.65a32.57 32.57 0 0 1 3.55 19.72 3 3 0 0 0-2.67-1.59 3 3 0 0 0-2.8 1.86 70.53 70.53 0 0 1-5.34 10.24 72 72 0 0 1-14 16.2zm16.58 6.3q1.77-2.39 3.36-4.89a77.33 77.33 0 0 0 4.32-7.84A32.6 32.6 0 0 1 114 267.8z"/><path class="a" d="M118.24 231.06a30.83 30.83 0 0 1 3.25 14.81 4.7 4.7 0 0 0-1.12-.13 4.85 4.85 0 0 0-4.48 3 68.43 68.43 0 0 1-5.2 10A69.94 69.94 0 0 1 99.82 272l-.58-10.55a31 31 0 0 1 19-30.34m1.66-4.47a34.7 34.7 0 0 0-24.3 35l1 17.94a74 74 0 0 0 17.18-18.9 71.86 71.86 0 0 0 5.48-10.52 1.23 1.23 0 0 1 1.12-.74 1.1 1.1 0 0 1 .47.1 1.21 1.21 0 0 1 .65 1.59 75 75 0 0 1-5.66 10.86 76 76 0 0 1-13.32 15.81l4.28-2.28a34.67 34.67 0 0 0 14.27-46.89c-.37-.68-.76-1.34-1.16-2z"/><path d="M136.53 272.9A85.35 85.35 0 0 1 57 156.59L88.86 74.8a85.34 85.34 0 1 1 159.05 61.9l-31.83 81.79a85.38 85.38 0 0 1-79.55 54.41z" fill="#ffd728"/><path class="a" d="M168.41 18v4.86a82.92 82.92 0 0 1 77.23 113l-31.83 81.79a82.91 82.91 0 1 1-154.52-60.18l31.83-81.79a83 83 0 0 1 77.29-52.86V18m0 0a87.79 87.79 0 0 0-81.82 56l-31.83 81.71a87.77 87.77 0 1 0 163.58 63.66l31.83-81.79A87.81 87.81 0 0 0 168.41 18z"/><path class="a" d="M97.3 210.76a17.37 17.37 0 0 1-5.42-33.86l11.73-3.81a4.79 4.79 0 0 1 1.55-.25 5 5 0 0 1 4.48 7.3 4.91 4.91 0 0 1-1 1.35 1.83 1.83 0 0 0 1 3.13 5 5 0 0 1 2.8 8.6 1.82 1.82 0 0 0-.48 1.88 1.85 1.85 0 0 0 1.49 1.25 5 5 0 0 1 4.29 4 5.12 5.12 0 0 1-3.54 5.75l-11.57 3.77a17.32 17.32 0 0 1-5.33.85z"/><path class="a" d="M105.16 174.66a3.2 3.2 0 0 1 3 2.21 3.14 3.14 0 0 1-.2 2.44 2.83 2.83 0 0 1-.65.86 3.64 3.64 0 0 0 2 6.25 3.19 3.19 0 0 1 1.78 5.48 3.64 3.64 0 0 0 2 6.25 3.19 3.19 0 0 1 2.74 2.58 3.33 3.33 0 0 1-2.32 3.68l-10.8 3.59-.65.21a15.53 15.53 0 0 1-9.62-29.54l.65-.21 11.08-3.61a3.11 3.11 0 0 1 1-.16m0-3.64a6.73 6.73 0 0 0-2.11.33L92 175l-.64.21a19.15 19.15 0 0 0-2.75 35.3 19.27 19.27 0 0 0 8.73 2.11 18.94 18.94 0 0 0 5.89-.94l.64-.21 10.93-3.55a7 7 0 0 0 4.77-7.84 6.85 6.85 0 0 0-5.84-5.5 6.83 6.83 0 0 0-3.81-11.73 6.68 6.68 0 0 0 1.38-1.85 6.77 6.77 0 0 0 .41-5.22 6.85 6.85 0 0 0-6.51-4.72zM154.25 242.39A17.44 17.44 0 0 1 136.93 226l-.68-12.31a5 5 0 0 1 4.74-5.29h.28a5 5 0 0 1 3.34 1.28 4.9 4.9 0 0 1 1 1.33 1.84 1.84 0 0 0 1.6.95h.1a1.8 1.8 0 0 0 1.58-1.12 5 5 0 0 1 4.36-3.1h.28a5 5 0 0 1 4.4 2.62 1.82 1.82 0 0 0 1.59.94h.1a1.85 1.85 0 0 0 1.59-1.12 5 5 0 0 1 4.69-3.18h.36a5.13 5.13 0 0 1 4.66 4.9l.67 12.15a17.46 17.46 0 0 1-16.38 18.29h-1z"/><path class="a" d="M165.9 208.84h.24a3.34 3.34 0 0 1 3 3.18l.63 11.48v.67a15.63 15.63 0 0 1-14.66 16.37h-.86a15.63 15.63 0 0 1-15.5-14.68v-.67l-.64-11.64a3.2 3.2 0 0 1 3-3.37h.18a3.15 3.15 0 0 1 2.79 1.67 3.66 3.66 0 0 0 3.2 1.89h.2a3.64 3.64 0 0 0 3.17-2.24 3.2 3.2 0 0 1 2.77-2h.18a3.2 3.2 0 0 1 2.8 1.68 3.65 3.65 0 0 0 3.19 1.88h.2a3.64 3.64 0 0 0 3.17-2.25 3.2 3.2 0 0 1 3-2m0-3.64a6.84 6.84 0 0 0-6.33 4.24 6.84 6.84 0 0 0-6-3.56h-.38a6.85 6.85 0 0 0-5.94 4.22 6.89 6.89 0 0 0-1.43-1.81 6.81 6.81 0 0 0-4.56-1.74h-.38a6.85 6.85 0 0 0-6.46 7.21l.64 11.64v.67a19.28 19.28 0 0 0 19.14 18.13h1.06A19.27 19.27 0 0 0 173.41 224v-.67l-.63-11.48a7 7 0 0 0-6.35-6.61 4 4 0 0 0-.49 0z"/><path d="M178.33 109.62a37.54 37.54 0 0 1-15.09-3.33 35 35 0 0 1-16.46-14.42c-3.29-5.9-3.83-12-1.54-17.13 3-6.8 10.85-11 20.4-11a37.37 37.37 0 0 1 15.09 3.33 34.92 34.92 0 0 1 16.46 14.41c3.29 5.9 3.83 12 1.54 17.13-3.03 6.78-10.85 11.01-20.4 11.01z" fill="#fff"/><path class="a" d="M165.64 61.9v3.64A35.68 35.68 0 0 1 180 68.71a33.16 33.16 0 0 1 15.6 13.64c3 5.38 3.52 10.89 1.46 15.5-2.73 6.13-9.91 9.94-18.73 9.94a35.52 35.52 0 0 1-14.33-3.17c-13.83-6.17-21.49-19.24-17.07-29.14 2.73-6.13 9.91-9.94 18.73-9.94V61.9m0 0c-10 0-18.59 4.32-22.06 12.1-5.24 11.75 3.22 27 18.91 34a39.23 39.23 0 0 0 15.84 3.49c10 0 18.59-4.32 22.06-12.11 5.24-11.75-3.22-26.95-18.91-33.95a39 39 0 0 0-15.84-3.48z"/><path class="a" d="M183.61 68.74a3.44 3.44 0 0 1-1.37-.29 3.36 3.36 0 0 1 1.37-6.45 3.28 3.28 0 0 1 1.37.29 3.36 3.36 0 0 1-1.37 6.42z"/><path class="a" d="M183.61 63.85a1.51 1.51 0 0 1 1.43 1A1.5 1.5 0 0 1 185 66a1.55 1.55 0 0 1-1.4.91 1.51 1.51 0 0 1-.62-.14 1.49 1.49 0 0 1-.81-.85 1.52 1.52 0 0 1 0-1.17 1.55 1.55 0 0 1 1.4-.91m0-3.65a5.18 5.18 0 0 0-2.11 9.91 5.1 5.1 0 0 0 2.11.45 5.18 5.18 0 0 0 2.11-9.91 5.27 5.27 0 0 0-2.11-.45z"/><path d="M152.84 65.21a37 37 0 0 0 47.78 20.58" stroke="#0f3c5a" stroke-linecap="round" stroke-linejoin="round" stroke-width="3.65" fill="#fff"/><path class="a" d="M212.7 157.07a17.91 17.91 0 0 1-2.83-.23 17.11 17.11 0 0 1-13.23-11.08 138.07 138.07 0 0 1-5.93-71.21c.07-.41.16-.81.26-1.21v-.14l1.44-8.53a4.92 4.92 0 0 1 4.85-4.1 5.67 5.67 0 0 1 .82.07 4.9 4.9 0 0 1 3.19 2 5.07 5.07 0 0 1 .72 1.5 1.83 1.83 0 0 0 1.44 1.3h.31a1.82 1.82 0 0 0 1.49-.77 4.92 4.92 0 0 1 4-2.09 5.67 5.67 0 0 1 .82.07 5 5 0 0 1 3.9 3.51 1.84 1.84 0 0 0 1.45 1.29 1.63 1.63 0 0 0 .31 0 1.83 1.83 0 0 0 1.48-.77 5 5 0 0 1 2.83-2 4.87 4.87 0 0 1 1.2-.15 4.9 4.9 0 0 1 4.81 5.9l-2 11.82c-.06.35-.13.69-.21 1v.14a105.16 105.16 0 0 0 .23 32.61 103.62 103.62 0 0 0 4.71 18.1 17.07 17.07 0 0 1-16.07 22.83z"/><path class="a" d="M197.29 62.4a3 3 0 0 1 1.68.49 3 3 0 0 1 .85.81 3.08 3.08 0 0 1 .45 1 3.63 3.63 0 0 0 2.89 2.58 3.14 3.14 0 0 0 .61 0 3.66 3.66 0 0 0 3-1.53 3.1 3.1 0 0 1 2.52-1.33 3.05 3.05 0 0 1 .52 0 3.11 3.11 0 0 1 2.45 2.21 3.67 3.67 0 0 0 2.9 2.59 4.07 4.07 0 0 0 .61 0 3.65 3.65 0 0 0 3-1.54 3.08 3.08 0 0 1 2.54-1.32 3.18 3.18 0 0 1 .91.13 3.23 3.23 0 0 1 2.11 3.64l-1.9 11.16-.11.65a9.07 9.07 0 0 1-.19.93c0 .1 0 .2-.05.29a105.82 105.82 0 0 0 5 51.6 15.25 15.25 0 0 1-14.35 20.39 15.23 15.23 0 0 1-14.35-10.1 136.52 136.52 0 0 1-5.85-70.28c.06-.32.13-.66.24-1.08l.06-.29 1.41-8.4a3.12 3.12 0 0 1 3-2.57m0-3.65a6.74 6.74 0 0 0-6.64 5.62l-1.4 8.5c-.11.43-.21.88-.29 1.33a140.38 140.38 0 0 0 6 72.15 18.87 18.87 0 0 0 14.64 12.25 18.23 18.23 0 0 0 3.14.27 18.91 18.91 0 0 0 17.78-25.27 102.42 102.42 0 0 1-4.85-49.83c.09-.38.17-.76.24-1.15L226 82l1.89-11.16a6.85 6.85 0 0 0-4.66-7.74 6.63 6.63 0 0 0-2-.29 6.49 6.49 0 0 0-1.65.21 6.73 6.73 0 0 0-3.86 2.65 6.77 6.77 0 0 0-5.35-4.8 7.27 7.27 0 0 0-1.13-.09 6.74 6.74 0 0 0-5.5 2.86 6.79 6.79 0 0 0-1-2 6.66 6.66 0 0 0-1.86-1.77 6.51 6.51 0 0 0-2.51-1 6.24 6.24 0 0 0-1.13-.1zM107.36 113.57A17 17 0 0 1 91.59 103a17.06 17.06 0 0 1 9.22-22.3 104 104 0 0 0 16.56-8.7 104.8 104.8 0 0 0 24.29-21.76l.09-.12c.2-.29.4-.58.62-.85l7.4-9.43a5.19 5.19 0 0 1 4-2 4.7 4.7 0 0 1 2.43.67 5 5 0 0 1 1.82 1.9 5 5 0 0 1 .46 3.4 1.82 1.82 0 0 0 1.78 2.21 1.87 1.87 0 0 0 .8-.18 5 5 0 0 1 2.21-.52 4.84 4.84 0 0 1 3 1 5 5 0 0 1 1.76 4.94 1.82 1.82 0 0 0 2.59 2 5.06 5.06 0 0 1 1.58-.48h.6a4.92 4.92 0 0 1 1.27.17 5.11 5.11 0 0 1 1.76.88 4.91 4.91 0 0 1 .83 6.91l-5.34 6.81-.08.11c-.23.34-.46.68-.72 1a139.31 139.31 0 0 1-34.68 32 138.8 138.8 0 0 1-22 11.55 17 17 0 0 1-6.48 1.36z"/><path class="a" d="M153.82 39.71a2.85 2.85 0 0 1 1.49.41 3.08 3.08 0 0 1 1.15 1.2 3.12 3.12 0 0 1 .29 2.14 3.64 3.64 0 0 0 5.17 4.06 3.19 3.19 0 0 1 1.4-.32 3 3 0 0 1 1.89.65 3.12 3.12 0 0 1 1.1 3.11 3.65 3.65 0 0 0 3.56 4.43 3.53 3.53 0 0 0 1.61-.38 3.11 3.11 0 0 1 1-.3 2.42 2.42 0 0 1 .38 0 3.08 3.08 0 0 1 .8.1 3.23 3.23 0 0 1 1.11.56 3.09 3.09 0 0 1 .52 4.34L170 66.5l-.17.24c-.24.35-.44.64-.64.9a137.53 137.53 0 0 1-34.23 31.54 136.42 136.42 0 0 1-21.71 11.4 15.25 15.25 0 1 1-11.69-28.16 106.43 106.43 0 0 0 16.85-8.85 106.86 106.86 0 0 0 24.71-22.13l.18-.24c.21-.31.38-.55.55-.77l.41-.52 7-8.91a3.38 3.38 0 0 1 2.62-1.29m0-3.65a7 7 0 0 0-5.49 2.69l-7 8.91-.41.52c-.25.31-.47.63-.69 1a103.1 103.1 0 0 1-23.86 21.38 102.53 102.53 0 0 1-16.28 8.54 18.89 18.89 0 0 0-10.2 24.69 18.67 18.67 0 0 0 5.77 7.61 18.94 18.94 0 0 0 11.68 4 18.67 18.67 0 0 0 7.23-1.45 139.22 139.22 0 0 0 22.3-11.7A141 141 0 0 0 172 69.86c.28-.36.54-.73.79-1.11l5.34-6.81a6.75 6.75 0 0 0-1.13-9.46 6.89 6.89 0 0 0-2.42-1.21 6.76 6.76 0 0 0-1.74-.23 7.34 7.34 0 0 0-.81.05 6.72 6.72 0 0 0-2.18.65 6.72 6.72 0 0 0-6.55-8.19 6.85 6.85 0 0 0-3 .7 6.79 6.79 0 0 0-.63-4.64 6.71 6.71 0 0 0-2.48-2.61 6.52 6.52 0 0 0-3.37-.93z"/><path class="e" d="M25.5 227.24a25.78 25.78 0 0 0-7.58 8.53c-5.93 10.92-1.4 22.43-.63 24.3M176.41 298a21.54 21.54 0 0 1-15.15 23M189.67 294.17a36.36 36.36 0 0 1-3.47 24c-8.84 16.28-27.32 18.45-29 18.62M23.45 210.38A41.88 41.88 0 0 0 4 233.87c-5.78 17.44 1.48 32.31 2.65 34.6"/></svg>