<svg xmlns="http://www.w3.org/2000/svg" viewBox="0 0 393.17 216.79"><defs><style>.a,.b{fill:#0f3c5a}.a,.d{stroke:#0f3c5a;stroke-linejoin:round;stroke-width:3.68px}.d{fill:#d4d4d4}</style></defs><path class="a" d="M8.054 146.56l31.063 6.224-6.224 31.063-31.062-6.224zM40.87 8.546l31.063 6.224-6.224 31.063-31.062-6.224z"/><path class="b" d="M323.28 181.76a31 31 0 0 1-6-61.45l37-7.37a31.39 31.39 0 0 1 6.1-.61 31 31 0 0 1 6 61.45l-37 7.37a31.39 31.39 0 0 1-6.1.61z"/><path class="b" d="M360.34 114.17A29.18 29.18 0 0 1 366 172l-37 7.38a29.14 29.14 0 0 1-34.32-22.91 29.18 29.18 0 0 1 22.91-34.32l37-7.38a30 30 0 0 1 5.74-.57m0-3.68a33.21 33.21 0 0 0-6.46.64l-37 7.38a32.86 32.86 0 0 0 6.39 65.09 33.21 33.21 0 0 0 6.46-.64l37-7.38a32.86 32.86 0 0 0-6.39-65.09z"/><rect x="81.29" y="-62.41" width="201.65" height="341.6" rx="100.83" transform="rotate(-85.81 182.127 108.39)" fill="#ffd728" stroke-width="4.91" stroke="#0f3c5a" stroke-linejoin="round"/><path class="b" d="M274.88 159.69a22 22 0 0 1-11.54-3.27l-13.2-8.12a6.76 6.76 0 0 1-2.21-9.29 6.67 6.67 0 0 1 4.19-3 6.55 6.55 0 0 1 1.54-.18 6 6 0 0 1 .73 0h.2a1.84 1.84 0 0 0 1.54-2.84 6.8 6.8 0 0 1-.08-7.2 6.71 6.71 0 0 1 5.76-3.2 5.48 5.48 0 0 1 .7 0h.2a1.84 1.84 0 0 0 1.54-2.84 6.78 6.78 0 0 1 .41-7.91 6.64 6.64 0 0 1 5.23-2.45 7.06 7.06 0 0 1 3.74 1.06l13 8a22.21 22.21 0 0 1-6.51 40.55 23 23 0 0 1-5.24.69z"/><path class="b" d="M269.89 111.3a5.35 5.35 0 0 1 2.78.78l12.33 7.57.73.44a20.37 20.37 0 0 1-6 37.19 20.9 20.9 0 0 1-4.83.57 20.21 20.21 0 0 1-10.58-3l-.72-.44-12.47-7.68a4.9 4.9 0 0 1-1.63-6.73 4.84 4.84 0 0 1 3-2.2 4.64 4.64 0 0 1 1.12-.13h.54a2.55 2.55 0 0 0 .39 0 3.67 3.67 0 0 0 3.09-5.66 5 5 0 0 1-.07-5.24 4.89 4.89 0 0 1 4.2-2.33 4.36 4.36 0 0 1 .51 0h.39a3.68 3.68 0 0 0 3.09-5.67 4.94 4.94 0 0 1 .3-5.77 4.81 4.81 0 0 1 3.79-1.76m0-3.68a8.46 8.46 0 0 0-6.66 3.14 8.59 8.59 0 0 0-.52 10.06h-.9a8.58 8.58 0 0 0-7.19 13.24 7 7 0 0 0-.92 0 8.22 8.22 0 0 0-2 .23 8.59 8.59 0 0 0-2.51 15.68l12.47 7.67.72.44a23.73 23.73 0 0 0 12.51 3.55 24.48 24.48 0 0 0 5.68-.67 24.08 24.08 0 0 0 7.05-43.9l-.72-.45L274.6 109a9 9 0 0 0-4.71-1.33zM278.87 87.32a6.76 6.76 0 0 1-6.53-8.55 6.69 6.69 0 0 1 1-2.06 1.84 1.84 0 0 0-1.51-2.89h-.59a6.73 6.73 0 0 1-5.55-10.6 1.83 1.83 0 0 0-1.51-2.88H263.53a6.76 6.76 0 0 1-6.26-4.19 6.86 6.86 0 0 1 3.09-8.53l13.29-7.56a22.13 22.13 0 0 1 10.88-2.88 22.72 22.72 0 0 1 6 .82 22.24 22.24 0 0 1 5.11 40.74l-13.47 7.66a6.81 6.81 0 0 1-3.3.92z"/><path class="b" d="M284.55 39.06a20.73 20.73 0 0 1 5.51.75 20.41 20.41 0 0 1 4.69 37.37l-.74.42-12.73 7.24a4.92 4.92 0 0 1-7.17-5.58 5.15 5.15 0 0 1 .71-1.5 3.68 3.68 0 0 0-3-5.78h-.59a4.89 4.89 0 0 1-4-7.71 3.67 3.67 0 0 0-3-5.77H263.63a4.92 4.92 0 0 1-4.56-3 5 5 0 0 1 2.3-6.23l12.55-7.14.74-.42a20.2 20.2 0 0 1 10-2.64m0-3.68a23.87 23.87 0 0 0-11.79 3.12l-.74.42-12.55 7.14a8.72 8.72 0 0 0-3.88 10.84 8.59 8.59 0 0 0 8 5.32h.6a8.57 8.57 0 0 0 7.06 13.48h.59a8.77 8.77 0 0 0-1.24 2.62A8.6 8.6 0 0 0 283.1 88l12.73-7.24.74-.42A24 24 0 0 0 291 36.26a24.51 24.51 0 0 0-6.49-.88zM170 145.21a22.27 22.27 0 0 1-18.13-35l8.87-12.7a6.8 6.8 0 0 1 5.55-2.88 6.76 6.76 0 0 1 6.64 5.57 6.47 6.47 0 0 1 0 2.28 1.84 1.84 0 0 0 1.82 2.14 1.91 1.91 0 0 0 .9-.23 6.79 6.79 0 0 1 3.35-.88 6.68 6.68 0 0 1 3.84 1.21 6.79 6.79 0 0 1 2.78 6.64 1.84 1.84 0 0 0 1.82 2.14 1.81 1.81 0 0 0 .9-.24 6.77 6.77 0 0 1 7.88.87 6.88 6.88 0 0 1 .87 9l-8.76 12.53a22.09 22.09 0 0 1-14.33 9.19 22.32 22.32 0 0 1-4 .36z"/><path class="b" d="M166.27 96.51a4.89 4.89 0 0 1 4.83 4.06 4.86 4.86 0 0 1 0 1.66 3.67 3.67 0 0 0 3.63 4.27 3.72 3.72 0 0 0 1.8-.47 5 5 0 0 1 2.45-.64 4.78 4.78 0 0 1 2.78.88 4.94 4.94 0 0 1 2 4.83 3.67 3.67 0 0 0 5.44 3.8 5 5 0 0 1 2.44-.64 4.82 4.82 0 0 1 3.29 1.28 5 5 0 0 1 .6 6.61L187.3 134l-.49.7a20.23 20.23 0 0 1-13.17 8.3 20.59 20.59 0 0 1-3.66.33 20.43 20.43 0 0 1-16.62-32.07l.49-.69 8.38-12a4.92 4.92 0 0 1 4-2.1m0-3.68a8.58 8.58 0 0 0-7.05 3.67l-8.39 12-.49.7a24 24 0 0 0 19.7 37.89 24.21 24.21 0 0 0 4.3-.39 23.86 23.86 0 0 0 15.55-9.87l.49-.7 8.26-11.83a8.72 8.72 0 0 0-1.14-11.45 8.58 8.58 0 0 0-10-1.11 8.57 8.57 0 0 0-8.44-10 8.7 8.7 0 0 0-4.25 1.11 8.82 8.82 0 0 0 0-2.9 8.62 8.62 0 0 0-8.46-7.09zM172.65 73.21a7.09 7.09 0 0 1-6.13-3.72L159.27 56a22.21 22.21 0 0 1 19.46-32.79 22.75 22.75 0 0 1 6.48 1 22 22 0 0 1 13.21 10.71l7.36 13.63a6.74 6.74 0 0 1-7.88 9.68 6.9 6.9 0 0 1-2.05-1 1.85 1.85 0 0 0-1.08-.35 1.79 1.79 0 0 0-.87.22 1.86 1.86 0 0 0-1 1.7 6.81 6.81 0 0 1-3.52 6.28 6.67 6.67 0 0 1-3.18.8 6.88 6.88 0 0 1-4-1.3 1.84 1.84 0 0 0-2.92 1.57 6.78 6.78 0 0 1-4.28 6.63 6.38 6.38 0 0 1-2.33.43z"/><path class="b" d="M178.73 25.09a20.86 20.86 0 0 1 6 .88 20.22 20.22 0 0 1 12.12 9.82l.41.75 6.95 12.88a5 5 0 0 1 .38 3.75 4.88 4.88 0 0 1-2.37 2.91 4.81 4.81 0 0 1-2.33.6 5 5 0 0 1-1.42-.21 4.92 4.92 0 0 1-1.48-.75 3.69 3.69 0 0 0-3.91-.26 3.67 3.67 0 0 0-1.93 3.41 5 5 0 0 1-2.57 4.57 4.76 4.76 0 0 1-2.3.58 5.07 5.07 0 0 1-2.93-.95 3.69 3.69 0 0 0-3.91-.26 3.7 3.7 0 0 0-1.93 3.41 4.93 4.93 0 0 1-3.14 4.84 4.58 4.58 0 0 1-1.67.31 5.22 5.22 0 0 1-4.51-2.75l-6.85-12.71-.41-.74a20.39 20.39 0 0 1 17.85-30.08m0-3.68a24.11 24.11 0 0 0-21.08 35.5l.4.75 6.85 12.7a8.87 8.87 0 0 0 7.75 4.69 8.3 8.3 0 0 0 3-.56 8.59 8.59 0 0 0 5.49-8.44 8.71 8.71 0 0 0 5.09 1.65 8.55 8.55 0 0 0 8.54-9 8.66 8.66 0 0 0 2.6 1.29 8.41 8.41 0 0 0 2.47.37 8.5 8.5 0 0 0 4.07-1 8.6 8.6 0 0 0 3.49-11.64l-7-12.89L200 34a23.88 23.88 0 0 0-14.31-11.59 24.43 24.43 0 0 0-7-1z"/><path class="d" d="M171.57 20.57L62.51 6.64a3.65 3.65 0 0 0-3.25 1.25L29.63 42.32a3.67 3.67 0 0 0 2.36 6l112.78 13.1a3.68 3.68 0 0 0 3.34-1.4L174 26.47a3.68 3.68 0 0 0-2.43-5.9zM143.29 61.25L28.93 48a3.68 3.68 0 0 0-4.09 3.41l-4.12 60.46a3.69 3.69 0 0 0 3.22 3.9l113.24 14.09a3.68 3.68 0 0 0 4.12-3.34l5.23-61.32a3.68 3.68 0 0 0-3.24-3.95z"/></svg>