<svg xmlns="http://www.w3.org/2000/svg" viewBox="0 0 237.63 415.88"><defs><style>.a{fill:#0f3c5a}</style></defs><path class="a" d="M32.1 2.4H57v24.91H32.1z"/><path class="a" d="M54.61 4.8v20.11H34.5V4.8h20.11M57 0H32.1a2.4 2.4 0 0 0-2.4 2.4v24.91a2.41 2.41 0 0 0 2.4 2.4H57a2.41 2.41 0 0 0 2.4-2.4V2.4A2.4 2.4 0 0 0 57 0zM180.63 2.4h24.9v24.91h-24.9z"/><path class="a" d="M203.13 4.8v20.11H183V4.8h20.11m2.4-4.8h-24.89a2.39 2.39 0 0 0-2.39 2.4v24.91a2.4 2.4 0 0 0 2.39 2.4h24.91a2.41 2.41 0 0 0 2.4-2.4V2.4a2.4 2.4 0 0 0-2.4-2.4z"/><path d="M118.82 353.27A115.75 115.75 0 0 1 3.2 237.65V118.82a115.62 115.62 0 1 1 231.23 0v118.83a115.75 115.75 0 0 1-115.61 115.62z" fill="#ffd728"/><path class="a" d="M118.82 6.4a112.41 112.41 0 0 1 112.41 112.42v118.83a112.41 112.41 0 0 1-191.9 79.49A111.64 111.64 0 0 1 6.4 237.65V118.82A112.43 112.43 0 0 1 118.82 6.4m0-6.4A118.82 118.82 0 0 0 0 118.82v118.83a118.82 118.82 0 0 0 118.82 118.82 118.81 118.81 0 0 0 118.81-118.82V118.82A118.81 118.81 0 0 0 118.82 0z"/><path class="a" d="M118.82 413.48a42.2 42.2 0 0 1-42.16-42.16V312a42.16 42.16 0 0 1 84.34 0v59.35a42.2 42.2 0 0 1-42.18 42.13z"/><path class="a" d="M118.82 272.22A39.79 39.79 0 0 1 158.57 312v59.35a39.76 39.76 0 1 1-79.51 0V312a39.8 39.8 0 0 1 39.76-39.75m0-4.8A44.56 44.56 0 0 0 74.26 312v59.35a44.56 44.56 0 1 0 89.11 0V312a44.56 44.56 0 0 0-44.55-44.55z"/></svg>