<svg xmlns="http://www.w3.org/2000/svg" viewBox="0 0 415.88 266.42"><defs><style>.a{fill:#0f3c5a}</style></defs><path class="a" d="M2.4 100.65v-24.9h24.91l-.01 24.9h.01H2.4z"/><path class="a" d="M24.91 78.14v20.11H4.8V78.14h20.11m2.4-4.8H2.4a2.4 2.4 0 0 0-2.4 2.4v24.91a2.4 2.4 0 0 0 2.4 2.4h24.91a2.41 2.41 0 0 0 2.4-2.4V75.74a2.41 2.41 0 0 0-2.4-2.4zM312 204.61a42.16 42.16 0 0 1 0-84.31h59.37a42.16 42.16 0 1 1 0 84.31z"/><path class="a" d="M371.32 122.7a39.76 39.76 0 1 1 0 79.51H312a39.76 39.76 0 0 1 0-79.51h59.37m0-4.8H312a44.56 44.56 0 0 0-44.55 44.56A44.56 44.56 0 0 0 312 207h59.37a44.56 44.56 0 0 0 44.56-44.55 44.56 44.56 0 0 0-44.56-44.56z"/><path d="M118.82 263.22a115.62 115.62 0 1 1 0-231.23h118.83a115.62 115.62 0 1 1 0 231.23z" fill="#ffd728"/><path class="a" d="M237.65 35.19a112.42 112.42 0 0 1 79.49 191.91 111.68 111.68 0 0 1-79.49 32.9H118.82A112.42 112.42 0 0 1 39.33 68.11a111.68 111.68 0 0 1 79.49-32.92h118.83m0-6.4H118.82A118.81 118.81 0 0 0 0 147.6a118.82 118.82 0 0 0 118.82 118.82h118.83A118.82 118.82 0 0 0 356.47 147.6 118.81 118.81 0 0 0 237.65 28.79z"/><path class="a" d="M2.4 219.46v-24.9h24.91l-.01 24.91.01-.01H2.4z"/><path class="a" d="M24.91 197v20.11H4.8V197h20.11m2.4-4.8H2.4a2.4 2.4 0 0 0-2.4 2.4v24.91a2.4 2.4 0 0 0 2.4 2.4h24.91a2.41 2.41 0 0 0 2.4-2.4v-24.95a2.41 2.41 0 0 0-2.4-2.4z"/><ellipse cx="76.99" cy="125.33" rx="31.02" ry="42.2" fill="#fff"/><path class="a" d="M77 85.52c15.78 0 28.62 17.86 28.62 39.81s-12.85 39.8-28.62 39.8-28.62-17.86-28.62-39.8S61.21 85.52 77 85.52m0-4.8c-18.46 0-33.42 20-33.42 44.61s15 44.6 33.42 44.6 33.42-20 33.42-44.6S95.44 80.72 77 80.72zM43.57 93.18a5 5 0 1 1 5-5 5 5 0 0 1-5 5z"/><path class="a" d="M43.57 85.52a2.63 2.63 0 1 1-2.63 2.63 2.62 2.62 0 0 1 2.63-2.63m0-4.8A7.43 7.43 0 1 0 51 88.15a7.43 7.43 0 0 0-7.42-7.43zM43.57 167.48a5 5 0 1 1 5-5 5 5 0 0 1-5 5z"/><path class="a" d="M43.57 159.83a2.63 2.63 0 1 1-2.63 2.63 2.62 2.62 0 0 1 2.63-2.63m0-4.8a7.43 7.43 0 1 0 7.43 7.43 7.43 7.43 0 0 0-7.43-7.46zM43.57 130.35a5 5 0 1 1 5-5 5 5 0 0 1-5 5z"/><path class="a" d="M43.57 122.7a2.63 2.63 0 1 1-2.63 2.63 2.62 2.62 0 0 1 2.63-2.63m0-4.8a7.43 7.43 0 1 0 7.43 7.43 7.43 7.43 0 0 0-7.42-7.43z"/><rect x="150.93" y="28.71" width="84.32" height="158.57" rx="5.6" fill="#d4d4d4"/><path class="a" d="M229.65 31.11a3.21 3.21 0 0 1 3.2 3.2v147.38a3.21 3.21 0 0 1-3.2 3.2h-73.12a3.2 3.2 0 0 1-3.2-3.2V34.31a3.2 3.2 0 0 1 3.2-3.2h73.12m0-4.8h-73.12a8 8 0 0 0-8 8v147.38a8 8 0 0 0 8 8h73.12a8 8 0 0 0 8-8V34.31a8 8 0 0 0-8-8z"/><path d="M229.61 178.94a5.5 5.5 0 0 1-3.4-1.19l-28.56-22.21a5.55 5.55 0 0 1-2.16-4.42V8a5.64 5.64 0 0 1 5.63-5.62 5.5 5.5 0 0 1 3.4 1.19l28.56 22.22a5.52 5.52 0 0 1 2.16 4.42v143.1a5.63 5.63 0 0 1-5.63 5.63z" fill-rule="evenodd" fill="#d4d4d4"/><path class="a" d="M201.12 4.8a3.09 3.09 0 0 1 1.93.69l28.56 22.21a3.17 3.17 0 0 1 1.24 2.53v143.1a3.2 3.2 0 0 1-3.24 3.21 3.09 3.09 0 0 1-1.93-.69l-28.56-22.21a3.18 3.18 0 0 1-1.23-2.52V8a3.2 3.2 0 0 1 3.23-3.21m0-4.8a8 8 0 0 0-8 8v143.13a8 8 0 0 0 3.09 6.31l28.55 22.21a7.84 7.84 0 0 0 4.88 1.7 8 8 0 0 0 8-8V30.23a8 8 0 0 0-3.09-6.32L206 1.7a7.9 7.9 0 0 0-4.88-1.7zM145 179.86a23.83 23.83 0 0 1-16.85-40.64l11.93-11.93a7 7 0 0 1 11.92 4.92 6.81 6.81 0 0 1-.4 2.31 2.41 2.41 0 0 0 3.06 3.07 7 7 0 0 1 7.24 1.63 7 7 0 0 1 1.63 7.24 2.4 2.4 0 0 0 2.26 3.2 2.45 2.45 0 0 0 .8-.14 7.09 7.09 0 0 1 2.33-.4 6.91 6.91 0 0 1 5.64 2.89 7.13 7.13 0 0 1-.89 9.15l-11.77 11.77a23.66 23.66 0 0 1-16.9 6.93z"/><path class="a" d="M145 127.65a4.54 4.54 0 0 1 4.56 4.56 4.76 4.76 0 0 1-.26 1.52 4.8 4.8 0 0 0 4.53 6.39 4.81 4.81 0 0 0 1.58-.27 4.74 4.74 0 0 1 1.54-.26 4.47 4.47 0 0 1 3.21 1.33 4.58 4.58 0 0 1 1.06 4.74 4.81 4.81 0 0 0 4.53 6.4 4.64 4.64 0 0 0 1.59-.28 4.74 4.74 0 0 1 1.54-.26 4.56 4.56 0 0 1 3.7 1.9 4.7 4.7 0 0 1-.65 6l-11.12 11.12-.65.65a21.44 21.44 0 0 1-30.32-30.31l.66-.66L141.79 129a4.5 4.5 0 0 1 3.22-1.33m0-4.8a9.32 9.32 0 0 0-6.62 2.74l-11.28 11.28-.65.65a26.23 26.23 0 0 0 37.1 37.1l.66-.65 11.12-11.12a9.5 9.5 0 0 0 1.13-12.26 9.35 9.35 0 0 0-10.71-3.33 9.34 9.34 0 0 0-8.8-12.47 9.57 9.57 0 0 0-3.13.53 9.35 9.35 0 0 0-8.83-12.49zM145.12 90.72a7.38 7.38 0 0 1-5.19-2.17l-11.78-11.77a23.84 23.84 0 0 1 33.72-33.71L173.8 55a7 7 0 0 1-4.93 11.89 7.15 7.15 0 0 1-2.31-.4 2.21 2.21 0 0 0-.8-.14 2.4 2.4 0 0 0-2.26 3.19 7 7 0 0 1-1.63 7.24 6.89 6.89 0 0 1-4.91 2 7.15 7.15 0 0 1-2.34-.4 2.4 2.4 0 0 0-3.06 3.06 7 7 0 0 1-2.48 8 6.68 6.68 0 0 1-4 1.27z"/><path class="a" d="M145 38.54a21.27 21.27 0 0 1 15.16 6.23l.65.65L172.1 56.7a4.58 4.58 0 0 1 0 6.45 4.44 4.44 0 0 1-3.22 1.34 4.57 4.57 0 0 1-1.53-.27 4.8 4.8 0 0 0-6.12 6.12 4.58 4.58 0 0 1-1.06 4.74 4.47 4.47 0 0 1-3.17 1.33 4.7 4.7 0 0 1-1.54-.26 4.64 4.64 0 0 0-1.59-.28 4.8 4.8 0 0 0-4.53 6.4 4.59 4.59 0 0 1-1.64 5.24 4.3 4.3 0 0 1-2.54.81 5 5 0 0 1-3.5-1.46l-11.15-11.12-.66-.66A21.39 21.39 0 0 1 145 38.54m0-4.8a26.23 26.23 0 0 0-18.55 44.74l.65.65 11.12 11.12a9.78 9.78 0 0 0 6.89 2.87 9 9 0 0 0 5.37-1.74 9.35 9.35 0 0 0 3.34-10.71 9.34 9.34 0 0 0 11.93-11.92 9.36 9.36 0 0 0 9.74-15.44L164.22 42l-.66-.66a26 26 0 0 0-18.56-7.6zM285.72 90.75a7 7 0 0 1-6.56-9.28 2.4 2.4 0 0 0-2.26-3.19 2.44 2.44 0 0 0-.8.13 7.09 7.09 0 0 1-2.33.4 6.91 6.91 0 0 1-4.91-2 7 7 0 0 1-1.62-7.24 2.39 2.39 0 0 0-3.06-3.06 7.15 7.15 0 0 1-2.34.4 7 7 0 0 1-5.5-2.7 7.1 7.1 0 0 1 .75-9.34l11.78-11.77a23.84 23.84 0 0 1 33.71 33.71l-11.94 11.9a6.92 6.92 0 0 1-4.92 2.04z"/><path class="a" d="M285.72 38.54a21.43 21.43 0 0 1 15.16 36.54l-.66.66L289 87a4.57 4.57 0 0 1-6.46 0 4.46 4.46 0 0 1-1.33-3.22 4.71 4.71 0 0 1 .26-1.52 4.8 4.8 0 0 0-4.52-6.39 4.83 4.83 0 0 0-1.59.27 4.7 4.7 0 0 1-1.54.26 4.51 4.51 0 0 1-3.21-1.33 4.59 4.59 0 0 1-1.06-4.75 4.8 4.8 0 0 0-4.55-6.38 4.87 4.87 0 0 0-1.59.27 4.54 4.54 0 0 1-5.15-1.51 4.75 4.75 0 0 1 .56-6.16l11.12-11.12.65-.65a21.27 21.27 0 0 1 15.16-6.23m0-4.8a26 26 0 0 0-18.55 7.63l-.66.66-11.14 11.12a9.48 9.48 0 0 0-1 12.5 9.34 9.34 0 0 0 10.6 3.09 9.34 9.34 0 0 0 8.8 12.47 9.57 9.57 0 0 0 3.13-.53 9.33 9.33 0 0 0 2.2 9.73 9.37 9.37 0 0 0 13.24 0l11.28-11.28.65-.65a26.19 26.19 0 0 0-18.55-44.74zM285.72 179.86a23.62 23.62 0 0 1-16.85-6.93L256.93 161a7 7 0 0 1 7.24-11.49 2.4 2.4 0 0 0 2.5-.56 2.41 2.41 0 0 0 .56-2.5 7 7 0 0 1 1.63-7.23 6.89 6.89 0 0 1 4.91-2 7.15 7.15 0 0 1 2.34.4 2.44 2.44 0 0 0 .79.14 2.41 2.41 0 0 0 2.27-3.2 7 7 0 0 1 2.3-7.84 6.68 6.68 0 0 1 4.15-1.4 7.35 7.35 0 0 1 5.18 2.16l11.78 11.77a23.79 23.79 0 0 1-16.86 40.64z"/><path class="a" d="M285.62 127.69a5 5 0 0 1 3.49 1.45l11.12 11.12.65.65a21.44 21.44 0 0 1-30.32 30.32l-.65-.65-11.28-11.28a4.58 4.58 0 0 1 0-6.45 4.45 4.45 0 0 1 3.23-1.34 4.56 4.56 0 0 1 1.52.27 4.83 4.83 0 0 0 1.59.27 4.81 4.81 0 0 0 4.53-6.39 4.59 4.59 0 0 1 1.06-4.74 4.51 4.51 0 0 1 3.21-1.33 4.7 4.7 0 0 1 1.54.26 4.62 4.62 0 0 0 1.59.27 4.79 4.79 0 0 0 4.53-6.39 4.53 4.53 0 0 1 1.51-5.14 4.31 4.31 0 0 1 2.68-.9m0-4.8a9.07 9.07 0 0 0-5.62 1.91 9.36 9.36 0 0 0-3.1 10.52 9.57 9.57 0 0 0-3.13-.53 9.34 9.34 0 0 0-8.8 12.46 9.36 9.36 0 0 0-9.73 15.44L266.51 174l.66.65a26.23 26.23 0 0 0 37.1-37.1l-.65-.65-11.12-11.15a9.73 9.73 0 0 0-6.88-2.86z"/></svg>