<svg xmlns="http://www.w3.org/2000/svg" viewBox="0 0 263.01 381.42"><defs><style>.a,.b{fill:#0f3c5a}.b,.f,.g{stroke:#0f3c5a;stroke-linecap:round;stroke-linejoin:round;stroke-width:3.68px}.f{fill:none}.g{fill:#d4d4d4}</style></defs><path class="a" d="M101.75 207.13a16 16 0 0 1-15.37-11.68 92 92 0 0 1-2.13-9.75 89 89 0 0 1 45.58-92.58L130 93a16.93 16.93 0 0 1 2.08-1.26l10.13-5.13a4.83 4.83 0 0 1 2.18-.52 4.71 4.71 0 0 1 2.74.88 4.35 4.35 0 0 1 1 1.07 4.57 4.57 0 0 1-.16 5.33 1.83 1.83 0 0 0 1.46 3 4.53 4.53 0 0 1 3.7 7.3 1.84 1.84 0 0 0 1.46 3h.14a4.67 4.67 0 0 1 1.41.22 4.55 4.55 0 0 1 2.65 2.27 4.57 4.57 0 0 1-2 6.11l-10.27 5.2-.46.22-.13.06a57.15 57.15 0 0 0-30.26 59.94 58 58 0 0 0 1.37 6.28A16 16 0 0 1 106 206.54c-.58.16-1.17.29-1.75.39a16.62 16.62 0 0 1-2.54.2z"/><path class="a" d="M144.42 87.92a2.8 2.8 0 0 1 1.65.53 2.63 2.63 0 0 1 .6.6 2.72 2.72 0 0 1-.1 3.19 3.68 3.68 0 0 0 2.91 5.92h.14a2.69 2.69 0 0 1 2.15 4.34 3.68 3.68 0 0 0 2.92 5.92h.14a2.55 2.55 0 0 1 .84.13 2.63 2.63 0 0 1 1.57 1.35 2.73 2.73 0 0 1-1.19 3.64l-.4.2-8.91 4.51-.39.2-.57.28a4.71 4.71 0 0 1-.45.22l-.15.07a59.09 59.09 0 0 0-29.82 68.36 14.12 14.12 0 0 1-9.81 17.39 14.13 14.13 0 0 1-3.8.52A14.15 14.15 0 0 1 88.16 195a88.31 88.31 0 0 1-2.1-9.55 87.21 87.21 0 0 1 44.65-90.68 4.11 4.11 0 0 0 .39-.24 13.9 13.9 0 0 1 1.84-1.12l.57-.28 9.56-4.85a3 3 0 0 1 1.35-.32m0-3.68a6.73 6.73 0 0 0-3 .72l-9.57 4.84-.56.29A16.48 16.48 0 0 0 129 91.5 90.89 90.89 0 0 0 82.43 186a92.6 92.6 0 0 0 2.18 9.94 17.81 17.81 0 0 0 17.14 13 17 17 0 0 0 2.83-.23 17.19 17.19 0 0 0 2-.43 17.8 17.8 0 0 0 12.37-21.92 54.12 54.12 0 0 1-1.34-6.09 55.29 55.29 0 0 1 29.3-58l.58-.27.56-.29.4-.2 8.9-4.51.4-.2a6.39 6.39 0 0 0-.89-11.77 6.46 6.46 0 0 0-2-.31h-.14a6.37 6.37 0 0 0-5.07-10.26h-.13a6.4 6.4 0 0 0 .23-7.48 6.26 6.26 0 0 0-1.47-1.52 6.51 6.51 0 0 0-3.83-1.24z"/><path class="b" d="M178.128 123.816l10.805 8.536-8.537 10.805-10.804-8.537z"/><path class="a" d="M37.51 379.27a27.56 27.56 0 0 1-19.48-47l34.73-34.77a27.55 27.55 0 1 1 39 39L57 371.2a27.38 27.38 0 0 1-19.49 8.07z"/><path class="a" d="M72.25 291.58a25.4 25.4 0 0 1 18 43.36l-34.78 34.73a25.4 25.4 0 1 1-35.92-35.91L54.29 299a25.24 25.24 0 0 1 18-7.44m0-4.3a29.61 29.61 0 0 0-21 8.7l-34.78 34.75a29.71 29.71 0 0 0 0 42 29.69 29.69 0 0 0 42 0L93.25 338a29.69 29.69 0 0 0 0-42 29.61 29.61 0 0 0-21-8.7z"/><path d="M86.65 336.19a84.13 84.13 0 0 1-35.24-160.55L130 139.42a83.51 83.51 0 0 1 35.14-7.74 84.14 84.14 0 0 1 35.25 160.56l-78.64 36.21a83.36 83.36 0 0 1-35.1 7.74z" fill="#ffd728"/><path class="a" d="M165.18 129.23v4.91A81.68 81.68 0 0 1 199.4 290l-78.64 36.22a81.67 81.67 0 0 1-68.33-148.35l78.64-36.22a80.9 80.9 0 0 1 34.11-7.51v-4.91m0 0a86.28 86.28 0 0 0-36.16 8l-78.64 36.18A86.57 86.57 0 0 0 8 288.26a86.51 86.51 0 0 0 114.85 42.42l78.64-36.21a86.59 86.59 0 0 0 42.42-114.86 86.59 86.59 0 0 0-78.69-50.38z"/><path stroke-width="4.29" fill="#fff" stroke="#0f3c5a" stroke-linecap="round" stroke-linejoin="round" d="M237.755 183.22l10.804 8.537-8.536 10.805-10.805-8.537z"/><path class="a" d="M78.56 267.4a17.22 17.22 0 0 1-17-15.49l-1.14-12a5 5 0 0 1 3.79-5.43 5.08 5.08 0 0 1 1.1-.12 5 5 0 0 1 4.21 2.4 1.87 1.87 0 0 0 1.58.89h.17a1.85 1.85 0 0 0 1.55-1.2 4.94 4.94 0 0 1 4.15-3.21h.47a4.94 4.94 0 0 1 4.21 2.4 1.86 1.86 0 0 0 1.58.88h.17a1.87 1.87 0 0 0 1.56-1.2 4.82 4.82 0 0 1 .82-1.45 4.89 4.89 0 0 1 3.33-1.76 3.7 3.7 0 0 1 .47 0 5 5 0 0 1 4.9 4.45l1.15 12.14a17.2 17.2 0 0 1-15.41 18.66c-.57.01-1.12.04-1.66.04z"/><path class="a" d="M89.55 233.91a3.11 3.11 0 0 1 3.07 2.79l1.09 11.47.06.66A15.35 15.35 0 0 1 80 265.49c-.49 0-1 .07-1.46.07a15.39 15.39 0 0 1-15.2-13.83l-.06-.66-1.08-11.31a3.21 3.21 0 0 1 2.36-3.46 3.34 3.34 0 0 1 .7-.08 3.13 3.13 0 0 1 2.64 1.51 3.65 3.65 0 0 0 3.14 1.78h.36a3.71 3.71 0 0 0 3.1-2.39 3.1 3.1 0 0 1 2.6-2h.29a3.11 3.11 0 0 1 2.64 1.51 3.67 3.67 0 0 0 3.15 1.77h.35a3.69 3.69 0 0 0 3.1-2.4 3.07 3.07 0 0 1 .52-.9 3 3 0 0 1 2.08-1.11h.3m0-3.68h-.65a6.71 6.71 0 0 0-4.57 2.42 6.64 6.64 0 0 0-1.13 2 6.79 6.79 0 0 0-5.79-3.28h-.64a6.77 6.77 0 0 0-5.7 4.42 6.77 6.77 0 0 0-5.79-3.29 6.51 6.51 0 0 0-1.5.17 6.86 6.86 0 0 0-5.22 7.4l1.07 11.31.07.66a19.06 19.06 0 0 0 18.86 17.16c.6 0 1.2 0 1.81-.09a19.05 19.05 0 0 0 17.07-20.67l-.07-.66-1.09-11.47a6.78 6.78 0 0 0-6.73-6.12zM36.81 220.13A17.12 17.12 0 0 1 35.19 186l12-1.14a4 4 0 0 1 .49 0 5 5 0 0 1 4.94 3.82 4.94 4.94 0 0 1-2.28 5.31 1.84 1.84 0 0 0 .32 3.3 4.91 4.91 0 0 1 .85 8.83 1.83 1.83 0 0 0-.88 1.75 1.81 1.81 0 0 0 1.19 1.55 5.07 5.07 0 0 1 1.45.83 4.92 4.92 0 0 1-2.67 8.69l-12.14 1.16c-.56 0-1.11.03-1.65.03z"/><path class="a" d="M47.66 186.65A3.16 3.16 0 0 1 50.8 189a3.06 3.06 0 0 1-1.42 3.33A3.68 3.68 0 0 0 50 199a3.07 3.07 0 0 1 .53 5.53 3.68 3.68 0 0 0 .64 6.6 3.26 3.26 0 0 1 .91.52 3 3 0 0 1 1.1 2.08 3.07 3.07 0 0 1-2.78 3.36l-11.47 1.1-.66.06a14.13 14.13 0 0 1-1.46.07 15.28 15.28 0 0 1-1.44-30.48l.66-.06 11.31-1.08h.32m0-3.68a5.12 5.12 0 0 0-.67 0l-11.3 1.07-.67.07A19 19 0 0 0 36.81 222c.6 0 1.2 0 1.81-.09l.66-.06 11.47-1.09a6.77 6.77 0 0 0 3.67-11.95 6.64 6.64 0 0 0-2-1.13 6.75 6.75 0 0 0-1.17-12.14 6.77 6.77 0 0 0 3.13-7.28 6.86 6.86 0 0 0-6.72-5.26z"/><path d="M180.93 196.08c-7 0-14.67-3.58-20.51-9.57a31 31 0 0 1-8.85-17.31c-.77-5.92.77-11.09 4.33-14.56a15.71 15.71 0 0 1 11.23-4.23c7 0 14.67 3.58 20.51 9.58a31.07 31.07 0 0 1 8.85 17.3c.77 5.92-.77 11.1-4.33 14.57a15.7 15.7 0 0 1-11.23 4.22z" fill="#fff"/><path class="a" d="M167.13 152.26c6.52 0 13.69 3.37 19.19 9a29.22 29.22 0 0 1 8.35 16.26c.69 5.33-.66 9.95-3.79 13a13.91 13.91 0 0 1-9.95 3.7c-6.52 0-13.69-3.37-19.19-9a29.26 29.26 0 0 1-8.35-16.22c-.69-5.34.66-10 3.79-13a13.87 13.87 0 0 1 9.95-3.7m0-3.68a17.54 17.54 0 0 0-12.51 4.74c-8.25 8-6.24 23.47 4.48 34.47 6.45 6.62 14.58 10.13 21.83 10.13a17.54 17.54 0 0 0 12.51-4.74c8.25-8 6.24-23.47-4.48-34.48-6.45-6.62-14.58-10.12-21.83-10.12z"/><path class="f" d="M177.49 151.52a4.63 4.63 0 1 0-5.61-7.37M206.49 186.83a4.63 4.63 0 0 0-5.61-7.37"/><path class="a" d="M189 162.48a2.76 2.76 0 0 1-2.22-1.1 2.79 2.79 0 0 1 2.22-4.48 2.76 2.76 0 0 1 2.22 1.1 2.78 2.78 0 0 1-.53 3.91 2.72 2.72 0 0 1-1.69.57z"/><path class="a" d="M189 158.74a1 1 0 0 1 .76.37 1 1 0 0 1-.18 1.34 1 1 0 0 1-1.34-.18 1 1 0 0 1 .18-1.34.94.94 0 0 1 .58-.19m0-3.68a4.58 4.58 0 0 0-2.8.95 4.62 4.62 0 0 0 2.8 8.31 4.56 4.56 0 0 0 2.8-.94 4.63 4.63 0 0 0-2.8-8.32zM215 246.61a16 16 0 0 1-15.77-18.47 15.82 15.82 0 0 1 6.38-10.41 57.2 57.2 0 0 0 16.6-73.73c-.44-.79-.89-1.57-1.36-2.33l-4.48-7.77a4.5 4.5 0 0 1 2-6.52 4.48 4.48 0 0 1 4.34.43 1.9 1.9 0 0 0 1 .32 1.77 1.77 0 0 0 .92-.25 1.83 1.83 0 0 0 .92-1.73 4.49 4.49 0 0 1 7-4.06 1.85 1.85 0 0 0 1 .32 1.84 1.84 0 0 0 1.83-2 4.55 4.55 0 0 1 .14-1.52 4.42 4.42 0 0 1 1.66-2.44 4.17 4.17 0 0 1 .44-.29 4.43 4.43 0 0 1 2.24-.6 4.52 4.52 0 0 1 3.91 2.25l3.79 6.56a89.06 89.06 0 0 1-23.31 119.2 15.66 15.66 0 0 1-6.81 2.84 15.48 15.48 0 0 1-2.55.21z"/><path class="a" d="M240 117.39a2.67 2.67 0 0 1 2.32 1.33l3.79 6.56.06.11a87.21 87.21 0 0 1-22.86 116.68 14 14 0 0 1-6 2.52 14.13 14.13 0 0 1-10.57-25.37 59.06 59.06 0 0 0 17.1-76.14c-.44-.79-.9-1.59-1.38-2.36l-1.06-1.85L218 133a2.78 2.78 0 0 1 .61-3.58 2.84 2.84 0 0 1 .56-.33 2.54 2.54 0 0 1 1.05-.22 2.79 2.79 0 0 1 1.53.47 3.68 3.68 0 0 0 5.74-3.31 2.68 2.68 0 0 1 1.32-2.52 2.56 2.56 0 0 1 1.31-.36 2.69 2.69 0 0 1 1.53.48 3.74 3.74 0 0 0 2.08.64 3.59 3.59 0 0 0 1.84-.5 3.69 3.69 0 0 0 1.83-3.46 2.45 2.45 0 0 1 .08-.9 2.61 2.61 0 0 1 1-1.44l.27-.18a2.66 2.66 0 0 1 1.32-.35m0-3.68a6.34 6.34 0 0 0-3.16.84c-.21.13-.42.27-.61.41a6.32 6.32 0 0 0-2.35 3.45 6.15 6.15 0 0 0-.19 2.13 6.41 6.41 0 0 0-3.61-1.12 6.34 6.34 0 0 0-6.3 6.84 6.33 6.33 0 0 0-6.11-.6 6.78 6.78 0 0 0-1.32.77 6.46 6.46 0 0 0-1.58 8.36l3.42 5.92 1.09 1.89c.46.74.89 1.49 1.31 2.26a55.37 55.37 0 0 1 2.4 48.09 55.42 55.42 0 0 1-18.5 23.29A17.8 17.8 0 0 0 215 248.45a18.25 18.25 0 0 0 2.85-.23 17.72 17.72 0 0 0 7.59-3.17 90.94 90.94 0 0 0 23.82-121.61l-3.78-6.56a6.36 6.36 0 0 0-5.51-3.17z"/><path class="g" d="M113.202 32.192l101.391-30.36 21.787 72.757-101.392 30.361z"/><path class="b" d="M125.445 38.046l82.137-24.595 16.557 55.294-82.136 24.595z"/><path class="g" d="M258.27 28.4L156.88 58.76l-21.89 46.2L236.38 74.6l21.89-46.2z"/></svg>