<svg xmlns="http://www.w3.org/2000/svg" viewBox="0 0 367.62 415.88"><defs><style>.a{fill:#0f3c5a}</style></defs><path class="a" d="M323.06 413.48a42.2 42.2 0 0 1-42.16-42.16v-59.41a42.16 42.16 0 0 1 84.32 0v59.41a42.2 42.2 0 0 1-42.16 42.16z"/><path class="a" d="M323.06 272.15a39.8 39.8 0 0 1 39.76 39.76v59.41a39.76 39.76 0 0 1-79.52 0v-59.41a39.8 39.8 0 0 1 39.76-39.76m0-4.8a44.56 44.56 0 0 0-44.56 44.56v59.41a44.56 44.56 0 0 0 89.12 0v-59.41a44.56 44.56 0 0 0-44.56-44.56z"/><path d="M248.8 353.27a115.75 115.75 0 0 1-115.62-115.62V118.82a115.62 115.62 0 0 1 231.24 0v118.83A115.75 115.75 0 0 1 248.8 353.27z" fill="#ffd728"/><path class="a" d="M248.8 6.4a112.43 112.43 0 0 1 112.42 112.42v118.83a112.42 112.42 0 0 1-224.84 0V118.82A112.43 112.43 0 0 1 248.8 6.4m0-6.4A118.82 118.82 0 0 0 130 118.82v118.83a118.82 118.82 0 0 0 237.64 0V118.82A118.82 118.82 0 0 0 248.8 0z"/><path class="a" d="M182 49.09a5 5 0 1 1 5-5 5 5 0 0 1-5 5z"/><path class="a" d="M182 41.44a2.63 2.63 0 1 1-2.63 2.62 2.63 2.63 0 0 1 2.63-2.62m0-4.8a7.43 7.43 0 1 0 7.42 7.42 7.42 7.42 0 0 0-7.42-7.42zM133.5 309.51a23.64 23.64 0 0 1-16.85-6.93l-11.94-11.94a7 7 0 0 1 7.29-11.48l4.72 1.66-1.72-4.72a7 7 0 0 1 1.64-7.24 7 7 0 0 1 7.24-1.62l4.71 1.65-1.59-4.71a6.93 6.93 0 0 1 2.1-7.68 6.72 6.72 0 0 1 4.3-1.47 7.44 7.44 0 0 1 5.26 2.09l11.74 11.74a23.79 23.79 0 0 1-16.85 40.65z"/><path class="a" d="M133.35 257.43a5.11 5.11 0 0 1 3.56 1.38l11.09 11.1.66.65a21.44 21.44 0 0 1-30.32 30.32l-.65-.66L106.41 289a4.56 4.56 0 0 1 3.23-7.79 4.81 4.81 0 0 1 1.52.26l9.43 3.33-3.31-9.44a4.61 4.61 0 0 1 1.06-4.75 4.54 4.54 0 0 1 3.21-1.32 4.7 4.7 0 0 1 1.54.26l9.44 3.32-3.32-9.44a4.55 4.55 0 0 1 1.38-5 4.32 4.32 0 0 1 2.76-.91m0-4.8a9.07 9.07 0 0 0-5.84 2 9.36 9.36 0 0 0-2.83 10.28 9.57 9.57 0 0 0-3.13-.53 9.34 9.34 0 0 0-8.8 12.46 9.36 9.36 0 0 0-9.75 15.41l11.27 11.28.66.65a26.23 26.23 0 0 0 37.1-37.1l-.65-.66-11.1-11.09a9.86 9.86 0 0 0-7-2.79z"/><circle cx="144.84" cy="77.48" r="31.02" fill="#fff"/><path class="a" d="M144.84 48.86a28.62 28.62 0 1 1-28.62 28.62 28.65 28.65 0 0 1 28.62-28.62m0-4.8a33.42 33.42 0 1 0 33.41 33.42 33.42 33.42 0 0 0-33.41-33.42zM280.9 2.4h24.9v24.91h-24.9z"/><path class="a" d="M303.41 4.8v20.11H283.3V4.8h20.11m2.4-4.8H280.9a2.4 2.4 0 0 0-2.4 2.4v24.91a2.41 2.41 0 0 0 2.4 2.4h24.91a2.41 2.41 0 0 0 2.4-2.4V2.4a2.4 2.4 0 0 0-2.4-2.4z"/><path d="M40.87 187a8.74 8.74 0 0 1-8.31-6L2.85 91.89A8.78 8.78 0 0 1 8.39 80.8a8.77 8.77 0 0 1 11.09 5.55l27.71 83.12H130a8.77 8.77 0 1 1 0 17.53z" fill="#d4d4d4"/><path class="a" d="M11.17 82.75a6.38 6.38 0 0 1 6 4.35l28.25 84.77H130a6.37 6.37 0 1 1 0 12.73H40.87a6.37 6.37 0 0 1-6-4.35L5.13 91.13a6.36 6.36 0 0 1 4-8 6.47 6.47 0 0 1 2-.33m0-4.8A11.17 11.17 0 0 0 .57 92.65l29.71 89.11a11.15 11.15 0 0 0 10.59 7.64H130a11.17 11.17 0 1 0 0-22.33H48.92L21.76 85.59A11.15 11.15 0 0 0 11.17 78zM122.56 49.09a5 5 0 1 1 5-5 5 5 0 0 1-5 5z"/><path class="a" d="M122.56 41.44a2.63 2.63 0 1 1-2.63 2.62 2.62 2.62 0 0 1 2.63-2.62m0-4.8a7.43 7.43 0 1 0 7.44 7.42 7.43 7.43 0 0 0-7.42-7.42zM133.5 175.83a6.95 6.95 0 0 1-6.56-9.27l1.66-4.72-4.72 1.66a7.08 7.08 0 0 1-2.33.39 6.9 6.9 0 0 1-4.9-2 7 7 0 0 1-1.63-7.25l1.66-4.71-4.68 1.63a6.89 6.89 0 0 1-2.34.4 7 7 0 0 1-5.34-2.5 7.43 7.43 0 0 1 .62-9.56l11.74-11.74a23.84 23.84 0 0 1 33.71 33.71l-11.97 11.93a6.91 6.91 0 0 1-4.92 2.03z"/><path class="a" d="M133.5 123.62a21.44 21.44 0 0 1 15.16 36.55l-.66.65-11.27 11.28a4.59 4.59 0 0 1-6.46 0 4.48 4.48 0 0 1-1.33-3.23 4.7 4.7 0 0 1 .26-1.51l3.32-9.43-9.43 3.3a4.45 4.45 0 0 1-1.54.26 4.54 4.54 0 0 1-3.21-1.32 4.61 4.61 0 0 1-1.06-4.75l3.32-9.42-9.44 3.32a4.7 4.7 0 0 1-1.54.26 4.5 4.5 0 0 1-3.5-1.64 5.06 5.06 0 0 1 .47-6.32l11.1-11.09.65-.66a21.27 21.27 0 0 1 15.16-6.23m0-4.8a26 26 0 0 0-18.5 7.62l-.66.65-11.09 11.1a9.8 9.8 0 0 0-.76 12.79 9.33 9.33 0 0 0 7.18 3.36 9.57 9.57 0 0 0 3.13-.53 9.36 9.36 0 0 0 11.93 11.93 9.36 9.36 0 0 0 15.44 9.74l11.28-11.28.65-.66a26.19 26.19 0 0 0-18.55-44.74z"/></svg>