<svg xmlns="http://www.w3.org/2000/svg" viewBox="0 0 331.18 261.65"><defs><style>.a{fill:#0f3c5a}</style></defs><path class="a" d="M234.53 23.37l-1.44 2.76 1.1-2.11.34-.65z"/><path class="a" d="M234.53 23.37zm0 0l-1.44 2.76 1.1-2.1.34-.66zM230.61 108.78a19.13 19.13 0 0 1-9.11-2.33c-7.32-4-25.13-15.83-32.52-39.46-.14-.44-.28-.89-.41-1.34a67.74 67.74 0 0 1 .3-38.75 11.78 11.78 0 0 0 9 4.21 10.8 10.8 0 0 0 1.5-.1 11.67 11.67 0 0 0 10.39 6.32 10.94 10.94 0 0 0 1.51-.1 11.74 11.74 0 0 0 6.32 5.6 11.47 11.47 0 0 0 7.31.25 1.83 1.83 0 0 0-.74 1.34 29.07 29.07 0 0 0 1 10.57 31 31 0 0 0 14.58 18 19.06 19.06 0 0 1-9.15 35.79zm9.52-63a5.24 5.24 0 0 1-1.11-.12l-12.65-2.84a1.81 1.81 0 0 0-.4 0h-.09a12.19 12.19 0 0 0 6.31-5.64l1.95-3.72L241.4 35a5.05 5.05 0 0 1 3.15 2.22 5 5 0 0 1 .67 3.8l-.18.78a5.08 5.08 0 0 1-4.91 3.95z"/><path class="a" d="M189.83 30.3a14.31 14.31 0 0 0 1.75 1.1 13.71 13.71 0 0 0 6.3 1.55h.5a13.49 13.49 0 0 0 11.39 6.23h.5a13.63 13.63 0 0 0 6.69 5.4 13.3 13.3 0 0 0 4.67.84h.6a30.83 30.83 0 0 0 1.18 10.14 32.9 32.9 0 0 0 15.47 19.04 17.22 17.22 0 1 1-16.5 30.23c-7.12-3.88-24.46-15.4-31.65-38.39l-.39-1.3a65.59 65.59 0 0 1-.51-34.84m45.28 5.19l5.89 1.32a3.2 3.2 0 0 1 2.42 3.82l-.17.78a3.23 3.23 0 0 1-3.12 2.5 3.51 3.51 0 0 1-.71-.08l-8.68-1.94a13.94 13.94 0 0 0 3.08-3.89l1.29-2.47m-46.66-13.16a69.89 69.89 0 0 0-1.64 43.8c.13.46.27.91.41 1.37 7.58 24.23 25.81 36.38 33.4 40.52a20.9 20.9 0 0 0 20-36.69 29.27 29.27 0 0 1-13.7-16.87 27.42 27.42 0 0 1-1-9.91l12.65 2.83a7.13 7.13 0 0 0 1.51.17 6.89 6.89 0 0 0 6.71-5.38l.17-.77a6.88 6.88 0 0 0-5.21-8.22l-8.64-1.94-2.6 5a10.22 10.22 0 0 1-8.93 5.46 9.49 9.49 0 0 1-3.38-.61 9.92 9.92 0 0 1-5.88-6 9.84 9.84 0 0 1-11.89-6.22 9.87 9.87 0 0 1-7.19-.78 9.91 9.91 0 0 1-4.84-5.77z"/><path class="a" d="M194.43 26a7.43 7.43 0 0 0 7.92-.64 7.44 7.44 0 0 0 11.9 6.23 7.46 7.46 0 0 0 4.86 7.26 7.58 7.58 0 0 0 9.28-3.69l5.8-11.16.34-.66a7.46 7.46 0 0 0-3.14-10.06 7.37 7.37 0 0 0-5.69-.51l-.25.09a7.12 7.12 0 0 0-2 1.06 7.59 7.59 0 0 0-1-4 7.43 7.43 0 0 0-7.13-3.73 7.54 7.54 0 0 0-3.8 1.46 7.35 7.35 0 0 0-.26-2.24 7.43 7.43 0 0 0-4.59-5 7.57 7.57 0 0 0-9.28 3.69l-5.81 11.1-.34.65A7.46 7.46 0 0 0 194.43 26z"/><rect class="a" x="309.37" y="109.72" width="19.98" height="19.98" rx=".61"/><path class="a" d="M327.5 111.56v16.3h-16.29v-16.3h16.29m1.23-3.68H310a2.46 2.46 0 0 0-2.45 2.46v18.74a2.46 2.46 0 0 0 2.45 2.46h18.75a2.45 2.45 0 0 0 2.45-2.46v-18.74a2.45 2.45 0 0 0-2.45-2.46zM35.48 212.49a33.64 33.64 0 0 1 0-67.28h23.66a33.64 33.64 0 0 1 0 67.28z"/><path class="a" d="M59.14 147.05a31.8 31.8 0 0 1 0 63.6H35.48a31.8 31.8 0 0 1 0-63.6h23.66m0-3.68H35.48a35.48 35.48 0 0 0 0 71h23.66a35.48 35.48 0 0 0 0-71z"/><path d="M141.94 259.19a92.17 92.17 0 1 1 0-184.34h94.62a92.17 92.17 0 0 1 0 184.34z" fill="#ffd728"/><path class="a" d="M236.56 77.3a89.72 89.72 0 0 1 0 179.44h-94.62a89.72 89.72 0 0 1 0-179.44h94.62m0-4.9h-94.62A94.62 94.62 0 0 0 47.31 167a94.63 94.63 0 0 0 94.63 94.63h94.62A94.62 94.62 0 0 0 331.18 167a94.62 94.62 0 0 0-94.62-94.6z"/><rect class="a" x="309.37" y="204.35" width="19.98" height="19.98" rx=".61"/><path class="a" d="M327.5 206.19v16.29h-16.29v-16.29h16.29m1.23-3.68H310a2.45 2.45 0 0 0-2.45 2.45v18.75a2.45 2.45 0 0 0 2.45 2.45h18.75a2.45 2.45 0 0 0 2.45-2.45V205a2.44 2.44 0 0 0-2.45-2.45z"/><ellipse cx="269.88" cy="149.28" rx="24.77" ry="33.68" fill="#fff"/><path class="a" d="M269.88 117.44c12.64 0 22.93 14.28 22.93 31.84s-10.29 31.84-22.93 31.84-22.94-14.28-22.94-31.84 10.29-31.84 22.94-31.84m0-3.68c-14.7 0-26.62 15.9-26.62 35.52s11.92 35.52 26.62 35.52 26.61-15.9 26.61-35.52-11.92-35.52-26.61-35.52z"/><circle class="a" cx="296.49" cy="119.67" r="4.07"/><path class="a" d="M296.49 117.44a2.24 2.24 0 1 1-2.24 2.23 2.23 2.23 0 0 1 2.24-2.23m0-3.68a5.92 5.92 0 1 0 5.91 5.91 5.91 5.91 0 0 0-5.91-5.91z"/><circle class="a" cx="296.49" cy="178.85" r="4.07"/><path class="a" d="M296.49 176.62a2.23 2.23 0 1 1-2.24 2.23 2.23 2.23 0 0 1 2.24-2.23m0-3.68a5.91 5.91 0 1 0 5.91 5.91 5.9 5.9 0 0 0-5.91-5.91z"/><circle class="a" cx="296.49" cy="149.28" r="4.07"/><path class="a" d="M296.49 147.05a2.23 2.23 0 1 1-2.24 2.23 2.23 2.23 0 0 1 2.24-2.23m0-3.68a5.91 5.91 0 1 0 5.91 5.91 5.9 5.9 0 0 0-5.91-5.91zM103.65 121.81a5.57 5.57 0 0 1-4-1.64l-9.5-9.5a19.05 19.05 0 0 1 26.94-26.95l9.38 9.38a5.72 5.72 0 0 1 .61 7.52 5.59 5.59 0 0 1-4.44 2.18 5.77 5.77 0 0 1-1.89-.32 1.81 1.81 0 0 0-.61-.1 1.86 1.86 0 0 0-1.3.54 1.83 1.83 0 0 0-.43 1.91 5.65 5.65 0 0 1-1.32 5.84 5.56 5.56 0 0 1-4 1.63 5.42 5.42 0 0 1-1.88-.32 2.16 2.16 0 0 0-.61-.1 1.85 1.85 0 0 0-1.74 2.45 5.5 5.5 0 0 1 .33 1.87 5.62 5.62 0 0 1-5.62 5.61z"/><path class="a" d="M103.65 80a17.1 17.1 0 0 1 12.17 5l.52.52 8.86 8.86a3.92 3.92 0 0 1 .45 5.09 3.73 3.73 0 0 1-3 1.47 4 4 0 0 1-1.28-.21 3.66 3.66 0 0 0-3.82.87 3.67 3.67 0 0 0-.87 3.82 3.78 3.78 0 0 1-.88 3.93 3.7 3.7 0 0 1-2.65 1.09 3.85 3.85 0 0 1-1.27-.21 3.68 3.68 0 0 0-1.22-.21 3.72 3.72 0 0 0-2.61 1.08 3.67 3.67 0 0 0-.86 3.82 4 4 0 0 1 .22 1.26 3.78 3.78 0 0 1-6.45 2.67l-9-9-.52-.52A17.18 17.18 0 0 1 103.65 80m0-3.68A20.9 20.9 0 0 0 88.88 112l.52.52 9 9a7.45 7.45 0 0 0 12.3-7.75 7.53 7.53 0 0 0 2.49.42 7.42 7.42 0 0 0 7-9.92 7.63 7.63 0 0 0 2.5.42 7.42 7.42 0 0 0 5.89-2.89 7.57 7.57 0 0 0-.76-10L119 82.94l-.52-.52a20.76 20.76 0 0 0-14.78-6.08zM103.65 192.78a19.06 19.06 0 0 1-13.47-32.49l9.37-9.37a6 6 0 0 1 4.18-1.74 5.4 5.4 0 0 1 3.35 1.13 5.63 5.63 0 0 1 1.86 6.32 1.84 1.84 0 0 0 2.34 2.35 5.77 5.77 0 0 1 1.89-.32 5.56 5.56 0 0 1 4 1.63 5.65 5.65 0 0 1 1.32 5.84 1.85 1.85 0 0 0 1.74 2.45 1.87 1.87 0 0 0 .61-.11 5.74 5.74 0 0 1 1.87-.32 5.62 5.62 0 0 1 4 9.59l-9.51 9.5a18.9 18.9 0 0 1-13.55 5.54z"/><path class="a" d="M103.73 151a3.61 3.61 0 0 1 2.22.74 3.81 3.81 0 0 1 1.25 4.26 3.68 3.68 0 0 0 4.69 4.69 4 4 0 0 1 1.28-.21 3.74 3.74 0 0 1 2.65 1.09 3.8 3.8 0 0 1 .88 3.93 3.68 3.68 0 0 0 4.7 4.69 3.68 3.68 0 0 1 1.26-.22 3.78 3.78 0 0 1 2.67 6.45l-9 9-.53.52a17.21 17.21 0 0 1-24.34-24.35l.52-.52 8.85-8.85a4.1 4.1 0 0 1 2.88-1.2m0-3.68a7.74 7.74 0 0 0-5.48 2.28l-8.85 8.85-.52.52a20.9 20.9 0 0 0 29.55 29.55l.59-.54 9-9a7.46 7.46 0 0 0-5.27-12.73 7.35 7.35 0 0 0-2.48.43 7.43 7.43 0 0 0-7-9.92 7.63 7.63 0 0 0-2.5.42 7.45 7.45 0 0 0-2.46-8.38 7.24 7.24 0 0 0-4.48-1.52z"/><rect x="107.45" y="98.28" width="130.11" height="70.97" rx="3.68" transform="rotate(-90 172.505 133.765)" fill="#d4d4d4" stroke="#0f3c5a" stroke-linecap="round" stroke-linejoin="round" stroke-width="3.68"/><path d="M137 70.51V191.3a3.68 3.68 0 0 0 5.94 2.9l28.12-21.87a3.69 3.69 0 0 0 1.43-2.91V48.64a3.68 3.68 0 0 0-5.94-2.91l-28.11 21.88a3.69 3.69 0 0 0-1.44 2.9z" fill-rule="evenodd" fill="#d4d4d4" stroke="#0f3c5a" stroke-linecap="round" stroke-linejoin="round" stroke-width="3.68"/><path class="a" d="M215.71 192.78a18.92 18.92 0 0 1-13.48-5.54l-9.37-9.38a5.69 5.69 0 0 1-.61-7.52 5.59 5.59 0 0 1 4.44-2.18 5.71 5.71 0 0 1 1.88.32 1.86 1.86 0 0 0 .61.1 1.8 1.8 0 0 0 1.3-.54 1.85 1.85 0 0 0 .44-1.91 5.65 5.65 0 0 1 1.31-5.84 5.58 5.58 0 0 1 4-1.63 5.46 5.46 0 0 1 1.88.32 1.81 1.81 0 0 0 .61.1 1.84 1.84 0 0 0 1.73-2.45 5.74 5.74 0 0 1-.32-1.87 5.62 5.62 0 0 1 9.59-4l9.5 9.5a19 19 0 0 1-13.47 32.49z"/><path class="a" d="M215.71 151a3.77 3.77 0 0 1 2.67 1.1l9 9 .52.52a17.22 17.22 0 0 1-24.35 24.35l-.52-.52-8.85-8.86a3.91 3.91 0 0 1-.46-5.09 3.76 3.76 0 0 1 3-1.47 3.65 3.65 0 0 1 1.27.22 3.68 3.68 0 0 0 4.69-4.7 3.82 3.82 0 0 1 .88-3.93 3.76 3.76 0 0 1 2.66-1.09 3.89 3.89 0 0 1 1.27.21 3.68 3.68 0 0 0 4.69-4.69 3.77 3.77 0 0 1 3.56-5m0-3.68a7.48 7.48 0 0 0-5.28 2.18 7.43 7.43 0 0 0-1.75 7.75 7.57 7.57 0 0 0-2.49-.42 7.43 7.43 0 0 0-7 9.92 7.57 7.57 0 0 0-2.49-.42 7.41 7.41 0 0 0-5.89 2.89 7.57 7.57 0 0 0 .76 10l8.85 8.85.52.52A20.9 20.9 0 0 0 230.48 159l-.52-.52-9-9a7.47 7.47 0 0 0-5.27-2.18z"/></svg>