<svg xmlns="http://www.w3.org/2000/svg" viewBox="0 0 267.32 276.62"><defs><style>.a{fill:#0f3c5a}.d,.e{fill:none;stroke:#0f3c5a;stroke-linecap:round;stroke-linejoin:round;stroke-width:3.68px}.e{fill:#d4d4d4;fill-rule:evenodd}</style></defs><path class="a" d="M195.67 274.78a31.59 31.59 0 0 1-18.08-5.67l-18.41-12.77a31.77 31.77 0 0 1 36.23-52.2l18.4 12.78a31.76 31.76 0 0 1-18.14 57.86z"/><path class="a" d="M177.33 196.63v3.68a29.73 29.73 0 0 1 17 5.35l18.4 12.77a29.92 29.92 0 1 1-34.12 49.17l-18.41-12.77a29.93 29.93 0 0 1 17.09-54.52v-3.68m0 0a33.56 33.56 0 0 0-27.63 14.45 33.6 33.6 0 0 0 8.44 46.77l18.41 12.77a33.6 33.6 0 1 0 38.32-55.21l-18.4-12.78a33.51 33.51 0 0 0-19.14-6zM134.16 2.76h18.72v18.72h-18.72z"/><path class="a" d="M151.05 4.6v15H136v-15h15.05m3.68-3.68h-22.41v22.4h22.41V.92z"/><path d="M167.57 255.19A165 165 0 0 1 2.45 90.07 87.62 87.62 0 0 1 152 28.12a88.1 88.1 0 0 1 24.91 50.47 2.46 2.46 0 0 0 2.11 2.12 88.09 88.09 0 0 1 50.48 24.9 87.62 87.62 0 0 1-62 149.58z" fill="#ffd728"/><path class="a" d="M90.07 4.91a84.65 84.65 0 0 1 60.23 24.94 85.64 85.64 0 0 1 24.21 49.07 4.9 4.9 0 0 0 4.22 4.22 85.61 85.61 0 0 1 49.06 24.21 85.17 85.17 0 0 1-60.22 145.39A162.57 162.57 0 0 1 4.91 90.07 85.15 85.15 0 0 1 90.07 4.91m0-4.91A90.07 90.07 0 0 0 0 90.07a167.52 167.52 0 0 0 167.57 167.58 90.08 90.08 0 0 0 11.8-179.38A90.06 90.06 0 0 0 90.07 0z"/><path class="a" d="M33.35 2.76h18.72v18.72H33.35z"/><path class="a" d="M50.23 4.6v15h-15v-15h15M53.91.92h-22.4v22.4h22.4V.92z"/><path d="M111.79 82.35C94.25 82.35 80 71.86 80 59s14.26-23.36 31.8-23.36S143.59 46.1 143.59 59s-14.27 23.35-31.8 23.35z" fill="#fff"/><path class="a" d="M111.79 37.46c16.52 0 30 9.65 30 21.52s-13.44 21.53-30 21.53-30-9.66-30-21.53 13.44-21.52 30-21.52m0-3.68c-18.58 0-33.64 11.28-33.64 25.2s15.06 25.21 33.64 25.21S145.43 72.9 145.43 59s-15.06-25.2-33.64-25.2z"/><path class="a" d="M111.79 37.54a3.76 3.76 0 1 1 3.76-3.76 3.76 3.76 0 0 1-3.76 3.76z"/><path class="a" d="M111.79 31.86a1.92 1.92 0 1 1-1.92 1.92 1.92 1.92 0 0 1 1.92-1.92m0-3.68a5.6 5.6 0 1 0 5.6 5.6 5.59 5.59 0 0 0-5.6-5.6zM166.63 207.48a19.6 19.6 0 0 1-12.34-4.31 20 20 0 0 1-3.16-28l8.73-10.94a5.93 5.93 0 0 1 8.33-.94 5.82 5.82 0 0 1 2.19 4 5.59 5.59 0 0 1-.12 2 1.86 1.86 0 0 0 1.8 2.26 1.77 1.77 0 0 0 .8-.19 6 6 0 0 1 2.6-.59 5.81 5.81 0 0 1 3.67 1.28 6 6 0 0 1 2.07 6 1.84 1.84 0 0 0 .65 1.85 1.82 1.82 0 0 0 1.15.41 1.77 1.77 0 0 0 .8-.19 6 6 0 0 1 2.61-.59 5.85 5.85 0 0 1 4.23 1.79 6 6 0 0 1 .26 8L182.29 200a19.77 19.77 0 0 1-13.35 7.34 22.35 22.35 0 0 1-2.31.13z"/><path class="a" d="M164.5 163.83a4 4 0 0 1 2.54.88 4.1 4.1 0 0 1 1.51 2.74 4 4 0 0 1-.08 1.38 3.69 3.69 0 0 0 3.59 4.51 3.56 3.56 0 0 0 1.59-.37 4.2 4.2 0 0 1 1.81-.41 4 4 0 0 1 2.53.88 4.13 4.13 0 0 1 1.42 4.12 3.69 3.69 0 0 0 3.59 4.51 3.64 3.64 0 0 0 1.6-.37 4.17 4.17 0 0 1 1.81-.41 4.06 4.06 0 0 1 2.92 1.24 4.18 4.18 0 0 1 .13 5.53l-8.13 10.2-.48.6a18 18 0 0 1-12.12 6.66 18.48 18.48 0 0 1-2.1.12 18.1 18.1 0 0 1-14.06-29.33l.48-.6 8.25-10.35a4.06 4.06 0 0 1 3.2-1.53m0-3.68a7.75 7.75 0 0 0-6.08 2.92l-8.25 10.34-.48.6a21.77 21.77 0 0 0 34 27.14l.48-.6 8.13-10.2A7.87 7.87 0 0 0 192 180a7.77 7.77 0 0 0-9-1.57 7.75 7.75 0 0 0-10.94-8.73 7.92 7.92 0 0 0 .15-2.62 7.77 7.77 0 0 0-7.71-6.89zM245.51 193.56a19.57 19.57 0 0 1-12.34-4.31l-10.95-8.73a5.93 5.93 0 0 1 3-10.53h.64a6.3 6.3 0 0 1 1.36.15 1.92 1.92 0 0 0 .41 0 1.84 1.84 0 0 0 1.66-2.64 6 6 0 0 1 .69-6.28 5.88 5.88 0 0 1 4.63-2.22 6 6 0 0 1 1.34.15 1.84 1.84 0 0 0 .41.05 1.84 1.84 0 0 0 1.66-2.64 5.93 5.93 0 0 1 1.2-6.85 5.74 5.74 0 0 1 4.06-1.62 6.29 6.29 0 0 1 3.9 1.36l10.8 8.62a19.89 19.89 0 0 1-10.19 35.34 22.51 22.51 0 0 1-2.28.15z"/><path class="a" d="M243.31 150a4.44 4.44 0 0 1 2.75 1l10.2 8.13.6.48a18 18 0 0 1-9.25 32.08 18.61 18.61 0 0 1-2.1.12 17.78 17.78 0 0 1-11.2-3.91l-.6-.48-10.34-8.25a4.09 4.09 0 0 1 2.09-7.26h.43a3.77 3.77 0 0 1 .94.11 4 4 0 0 0 .83.09 3.67 3.67 0 0 0 3.31-5.28 4.14 4.14 0 0 1 .47-4.33 4.08 4.08 0 0 1 3.2-1.53 4.22 4.22 0 0 1 .93.11 3.81 3.81 0 0 0 .82.09 3.68 3.68 0 0 0 3.31-5.28 4.12 4.12 0 0 1 .83-4.73 3.94 3.94 0 0 1 2.78-1.1m0-3.68a7.6 7.6 0 0 0-5.35 2.15 7.76 7.76 0 0 0-1.57 9 8 8 0 0 0-1.75-.2 7.75 7.75 0 0 0-7 11.14 8.07 8.07 0 0 0-1.77-.2 6.15 6.15 0 0 0-.85 0 7.7 7.7 0 0 0-5.2 2.87 7.78 7.78 0 0 0 1.25 10.86l10.35 8.25.6.48a21.56 21.56 0 0 0 13.49 4.71 21.26 21.26 0 0 0 2.51-.15 21.76 21.76 0 0 0 11.14-38.6l-.6-.48-10.2-8.21a8.1 8.1 0 0 0-5.05-1.77z"/><path class="d" d="M95.36 59.34a57.64 57.64 0 0 1 12.64-7.4 58.35 58.35 0 0 1 33.21-3.36M78.18 33.78h11.2M130.49 33.78h11.2"/><path class="e" d="M218.54 43.93h-94.89l3.87 53.82h94.88l-3.86-53.82z"/><path fill-rule="evenodd" fill="#ffd728" d="M134.42 90.37l-3.13-39.06h80.34l3.13 39.06h-80.34z"/><path class="a" d="M209.94 53.15l2.83 35.38h-76.65l-2.83-35.38h76.65m3.39-3.68h-84l3.42 42.74h84l-3.42-42.74z"/><path class="e" d="M222.4 97.75h-94.88l20.71 29.86h108.94L222.4 97.75z"/><path class="a" d="M125.35 127.4a20.34 20.34 0 0 1-6.17-1 19.92 19.92 0 0 1-3-36.66l12.45-6.4a5.75 5.75 0 0 1 2.69-.66 5.93 5.93 0 0 1 5.66 7.74 5.68 5.68 0 0 1-.93 1.77 1.86 1.86 0 0 0-.17 2 1.84 1.84 0 0 0 1.64 1h.21a5.91 5.91 0 0 1 5.27 3.19 6 6 0 0 1-.56 6.29 1.84 1.84 0 0 0 1.47 3h.21a5.89 5.89 0 0 1 5.59 3.91 6 6 0 0 1-3 7.37l-12.28 6.31a19.47 19.47 0 0 1-9 2.19z"/><path class="a" d="M131.29 84.55a4.08 4.08 0 0 1 3.26 6.56 3.68 3.68 0 0 0 2.93 5.9h.21a4.07 4.07 0 0 1 3.25 6.55 3.68 3.68 0 0 0 2.94 5.9h.21a4.07 4.07 0 0 1 3.86 2.7 4.19 4.19 0 0 1-2.14 5.1l-11.6 6-.69.36a17.78 17.78 0 0 1-8.17 2 18.27 18.27 0 0 1-5.61-.89A18.08 18.08 0 0 1 117 91.41l.68-.36 11.77-6a4 4 0 0 1 1.86-.45m0-3.68a7.73 7.73 0 0 0-3.54.86l-11.77 6-.68.35a21.73 21.73 0 0 0 3.31 40.05 22.11 22.11 0 0 0 6.74 1.06 21.53 21.53 0 0 0 9.86-2.39l.68-.35 11.6-6a7.89 7.89 0 0 0 3.92-9.64 7.78 7.78 0 0 0-7.32-5.11h-.21a7.75 7.75 0 0 0-6.19-12.45h-.21a7.76 7.76 0 0 0-6.19-12.46zM217.2 108.05a5.94 5.94 0 0 1-5.92-5.82 5.89 5.89 0 0 1 3.28-5.4 1.85 1.85 0 0 0-.06-3.32 5.91 5.91 0 0 1-.17-10.68 1.84 1.84 0 0 0-.06-3.31 5.94 5.94 0 0 1-3.43-6 6 6 0 0 1 6-5.27h5.13a19.93 19.93 0 0 1 .33 39.75h-.77z"/><path class="a" d="M222 70a18.09 18.09 0 0 1 .31 36.17h-5.07a4.11 4.11 0 0 1-4.09-4 4.07 4.07 0 0 1 1.15-2.91 4.21 4.21 0 0 1 1.12-.82 3.68 3.68 0 0 0-.11-6.63 4.07 4.07 0 0 1-.12-7.36 3.69 3.69 0 0 0-.11-6.64 4.1 4.1 0 0 1-2.37-4.17 4.18 4.18 0 0 1 4.1-3.64H221.96m0-3.68h-5.13a7.89 7.89 0 0 0-7.83 6.95 7.76 7.76 0 0 0 4.49 7.92 7.75 7.75 0 0 0 .23 14 7.77 7.77 0 0 0 3.47 14.72H222.32a21.77 21.77 0 0 0-.32-43.59zM153 79.45a1.84 1.84 0 0 0-1.84-1.84h-9V74l5.68-13.06h4.27l-4.91 11.42a1.85 1.85 0 0 0 .16 1.74 1.83 1.83 0 0 0 1.53.83h2.27a1.84 1.84 0 0 0 1.84-1.86v-1.56l1.28-2.89h2.63v4.45a1.84 1.84 0 0 0 1.84 1.84h.25v2.69h-.26a1.83 1.83 0 0 0-1.83 1.84v1.86H153z"/><path class="a" d="M149.28 62.77l-3.81 8.86a3.69 3.69 0 0 0 .31 3.48 4.11 4.11 0 0 0 .57.67H144v-1.41l5-11.6h.27m5.73 8.59v1.71a3.69 3.69 0 0 0 1.85 3.19 3.62 3.62 0 0 0-.77.58 3.7 3.7 0 0 0-1.07 2.61h-.24a3.67 3.67 0 0 0-1.08-2.6 3.88 3.88 0 0 0-.76-.59 3.7 3.7 0 0 0 1.83-3.19v-1.18l.24-.53m-.18-12.28zm0 0h-8.26l-6.32 14.51v5.86h10.84v3.7h7.59v-3.7h2.09v-6.39h-2.09v-6.28H153l-1.92 4.34v2h-2.27l6-14zM173.43 81.72c-5.62 0-9.12-4.07-9.13-10.62s3.48-10.64 9.11-10.65 9.13 4.07 9.14 10.62A11.6 11.6 0 0 1 180 79a8.48 8.48 0 0 1-6.55 2.75zm0-17.89c-1.22 0-5.19.53-5.18 7.26 0 5.34 2.68 7.25 5.19 7.25a4.61 4.61 0 0 0 4-2.32 9.26 9.26 0 0 0 1.17-4.94c0-6.73-4-7.25-5.2-7.25z"/><path class="a" d="M178.18 64c1.63 1.5 2.53 3.93 2.53 7.08a9.81 9.81 0 0 1-2.1 6.68 5.47 5.47 0 0 1-1.08 1A7.11 7.11 0 0 0 179 77a11.12 11.12 0 0 0 1.44-5.92c0-3.37-.93-5.64-2.28-7.08m-9.56.05c-1.33 1.43-2.23 3.71-2.22 7 0 2.89.89 5.79 2.79 7.51-1.95-1.44-3-4-3.05-7.51a9.87 9.87 0 0 1 2.11-6.67c.12-.13.24-.26.37-.38m4.81-5.43c-6.48 0-11 4.79-10.95 12.49s4.5 12.46 11 12.46c6.49 0 11-4.79 10.94-12.49s-4.48-12.46-11-12.46zm0 17.89c-2.08 0-3.35-2-3.35-5.41s1.09-5.42 3.34-5.42 3.35 2 3.36 5.41-1.27 5.41-3.34 5.42zM198.83 79.38a1.85 1.85 0 0 0-1.83-1.84h-9v-3.62l5.69-13.06h4.26L193 72.29a1.81 1.81 0 0 0 .15 1.73 1.84 1.84 0 0 0 1.54.83H197a1.85 1.85 0 0 0 1.82-1.85v-1.56l1.28-2.89h2.64V73a1.85 1.85 0 0 0 1.84 1.84h.26v2.69h-.26a1.84 1.84 0 0 0-1.84 1.84v1.86h-3.92z"/><path class="a" d="M195.13 62.7l-3.8 8.86a3.66 3.66 0 0 0 .31 3.48 3.32 3.32 0 0 0 .57.67h-2.39V74.3l5.05-11.6h.27m5.76 8.59V73a3.72 3.72 0 0 0 1.85 3.19 3.56 3.56 0 0 0-.76.58 3.71 3.71 0 0 0-1.08 2.61h-.23a3.68 3.68 0 0 0-1.09-2.6 3.61 3.61 0 0 0-.76-.59 3.69 3.69 0 0 0 1.83-3.19v-1.18l.24-.53M200.72 59zm0 0h-8.27l-6.32 14.51v5.89h10.85v3.7h7.6v-3.7h2.1V73h-2.1v-6.29h-5.67L197 71.05v2h-2.27l6-14z"/></svg>