<svg xmlns="http://www.w3.org/2000/svg" viewBox="0 0 237.63 415.88"><defs><style>.a{fill:#0f3c5a}</style></defs><path class="a" d="M32.1 2.4H57v24.91H32.1z"/><path class="a" d="M54.61 4.8v20.11H34.5V4.8h20.11M57 0H32.1a2.4 2.4 0 0 0-2.4 2.4v24.91a2.41 2.41 0 0 0 2.4 2.4H57a2.41 2.41 0 0 0 2.4-2.4V2.4A2.4 2.4 0 0 0 57 0zM180.62 2.4h24.9v24.91h-24.9z"/><path class="a" d="M203.13 4.8v20.11H183V4.8h20.11m2.4-4.8h-24.89a2.4 2.4 0 0 0-2.4 2.4v24.91a2.41 2.41 0 0 0 2.4 2.4h24.91a2.41 2.41 0 0 0 2.4-2.4V2.4a2.4 2.4 0 0 0-2.4-2.4zM118.82 413.48a42.2 42.2 0 0 1-42.16-42.16v-59.41a42.16 42.16 0 0 1 84.31 0v59.41a42.2 42.2 0 0 1-42.15 42.16z"/><path class="a" d="M118.82 272.16a39.79 39.79 0 0 1 39.75 39.75v59.41a39.76 39.76 0 1 1-79.51 0v-59.41a39.8 39.8 0 0 1 39.76-39.75m0-4.8a44.56 44.56 0 0 0-44.56 44.55v59.41a44.56 44.56 0 1 0 89.11 0v-59.41a44.56 44.56 0 0 0-44.55-44.55z"/><path d="M118.82 353.27A115.75 115.75 0 0 1 3.2 237.65V118.82a115.62 115.62 0 1 1 231.23 0v118.83a115.75 115.75 0 0 1-115.61 115.62z" fill="#ffd728"/><path class="a" d="M118.82 6.4a112.41 112.41 0 0 1 112.41 112.42v118.83a112.41 112.41 0 0 1-191.9 79.49A111.64 111.64 0 0 1 6.4 237.65V118.82A112.43 112.43 0 0 1 118.82 6.4m0-6.4A118.82 118.82 0 0 0 0 118.82v118.83a118.82 118.82 0 1 0 237.63 0V118.82A118.81 118.81 0 0 0 118.82 0z"/><path d="M118.82 108.5c-23.27 0-42.21-13.91-42.21-31s18.94-31 42.21-31 42.2 13.92 42.2 31-18.93 31-42.2 31z" fill="#fff"/><path class="a" d="M118.82 48.86c21.94 0 39.8 12.84 39.8 28.62s-17.86 28.62-39.8 28.62S79 93.26 79 77.48s17.86-28.62 39.81-28.62m0-4.8c-24.64 0-44.61 15-44.61 33.42s20 33.42 44.61 33.42 44.6-15 44.6-33.42-20-33.42-44.6-33.42zM156 49.09a5 5 0 1 1 5-5 5 5 0 0 1-5 5z"/><path class="a" d="M156 41.44a2.63 2.63 0 1 1-2.62 2.62 2.63 2.63 0 0 1 2.62-2.62m0-4.8a7.43 7.43 0 1 0 7.43 7.42 7.42 7.42 0 0 0-7.43-7.42zM81.69 49.09a5 5 0 1 1 5-5 5 5 0 0 1-5 5z"/><path class="a" d="M81.69 41.44a2.63 2.63 0 1 1-2.63 2.62 2.63 2.63 0 0 1 2.63-2.62m0-4.8a7.43 7.43 0 1 0 7.42 7.42 7.42 7.42 0 0 0-7.42-7.42zM118.82 49.09a5 5 0 1 1 5-5 5 5 0 0 1-5 5z"/><path class="a" d="M118.82 41.44a2.63 2.63 0 1 1-2.63 2.62 2.63 2.63 0 0 1 2.63-2.62m0-4.8a7.43 7.43 0 1 0 7.42 7.42 7.42 7.42 0 0 0-7.42-7.42z"/><rect x="39.53" y="150.93" width="158.57" height="84.32" rx="5.6" fill="#d4d4d4"/><path class="a" d="M192.5 153.33a3.2 3.2 0 0 1 3.2 3.2v73.12a3.2 3.2 0 0 1-3.2 3.2H45.13a3.21 3.21 0 0 1-3.2-3.2v-73.12a3.2 3.2 0 0 1 3.2-3.2H192.5m0-4.8H45.13a8 8 0 0 0-8 8v73.12a8 8 0 0 0 8 8H192.5a8 8 0 0 0 8-8v-73.12a8 8 0 0 0-8-8z"/><path d="M42.9 235.24a5.6 5.6 0 0 1-5.32-3.82l-9.52-28.56a5.6 5.6 0 0 1 5.32-7.37h170.88a5.6 5.6 0 0 1 5.31 7.37l-9.52 28.56a5.58 5.58 0 0 1-5.31 3.82z" fill-rule="evenodd" fill="#d4d4d4"/><path class="a" d="M204.26 197.89a3.2 3.2 0 0 1 3 4.21l-9.52 28.56a3.18 3.18 0 0 1-3 2.19H42.9a3.2 3.2 0 0 1-3-2.19l-9.56-28.56a3.2 3.2 0 0 1 3-4.21h170.92m0-4.8H33.38a8 8 0 0 0-7.59 10.53l9.52 28.55a8 8 0 0 0 7.59 5.48h151.84a8 8 0 0 0 7.59-5.48l9.52-28.55a8 8 0 0 0-7.59-10.53zM70.74 175.83a6.91 6.91 0 0 1-4.92-2l-11.93-11.96a23.84 23.84 0 0 1 33.71-33.72l11.93 11.94a7 7 0 0 1-7.24 11.48 2.44 2.44 0 0 0-.8-.13 2.4 2.4 0 0 0-2.26 3.19 7 7 0 0 1-1.63 7.24 6.92 6.92 0 0 1-4.91 2 7.08 7.08 0 0 1-2.33-.39 2.21 2.21 0 0 0-.8-.14 2.39 2.39 0 0 0-2.26 3.2 7 7 0 0 1-1.63 7.24 7 7 0 0 1-4.93 2.05z"/><path class="a" d="M70.74 123.62a21.27 21.27 0 0 1 15.16 6.23l.66.66 11.27 11.27a4.59 4.59 0 0 1 0 6.46 4.47 4.47 0 0 1-3.22 1.33 4.71 4.71 0 0 1-1.52-.26 4.64 4.64 0 0 0-1.6-.27 4.8 4.8 0 0 0-4.49 6.38 4.59 4.59 0 0 1-1.06 4.75 4.6 4.6 0 0 1-4.75 1.06 4.87 4.87 0 0 0-1.59-.27 4.81 4.81 0 0 0-4.6 6.39 4.59 4.59 0 0 1-1 4.75 4.58 4.58 0 0 1-6.45 0l-11.31-11.28-.66-.65a21.39 21.39 0 0 1 15.16-36.55m0-4.8a26.24 26.24 0 0 0-18.55 44.74l.66.66 11.27 11.28a9.36 9.36 0 0 0 15.44-9.74 9.34 9.34 0 0 0 11.93-11.92 9.6 9.6 0 0 0 3.12.53 9.36 9.36 0 0 0 6.62-16L90 127.11l-.66-.65a26 26 0 0 0-18.55-7.64zM166.89 175.83a6.95 6.95 0 0 1-6.56-9.27 2.41 2.41 0 0 0-2.26-3.2 2.45 2.45 0 0 0-.8.14 7.08 7.08 0 0 1-2.33.39 6.92 6.92 0 0 1-4.91-2 7 7 0 0 1-1.62-7.25 2.4 2.4 0 0 0-2.27-3.19 2.34 2.34 0 0 0-.79.13 6.89 6.89 0 0 1-2.34.4 7 7 0 0 1-4.91-11.87l11.9-11.96a23.84 23.84 0 0 1 33.71 33.72l-11.9 11.93a6.91 6.91 0 0 1-4.92 2.03z"/><path class="a" d="M166.89 123.62a21.44 21.44 0 0 1 15.16 36.55l-.66.65-11.27 11.28a4.59 4.59 0 0 1-6.46 0 4.48 4.48 0 0 1-1.33-3.23 4.7 4.7 0 0 1 .26-1.51 4.8 4.8 0 0 0-6.11-6.13 4.45 4.45 0 0 1-1.54.26 4.54 4.54 0 0 1-3.21-1.32 4.59 4.59 0 0 1-1.06-4.75 4.79 4.79 0 0 0-4.53-6.39 4.87 4.87 0 0 0-1.59.27 4.7 4.7 0 0 1-1.54.26 4.51 4.51 0 0 1-3.21-1.32 4.57 4.57 0 0 1 0-6.46l11.28-11.27.65-.66a21.27 21.27 0 0 1 15.16-6.23m0-4.8a26 26 0 0 0-18.55 7.64l-.66.65-11.27 11.28a9.35 9.35 0 0 0 6.6 16 9.57 9.57 0 0 0 3.13-.53 9.36 9.36 0 0 0 11.93 11.93 9.36 9.36 0 0 0 15.44 9.74l11.28-11.28.65-.66a26.19 26.19 0 0 0-18.55-44.74zM166.89 309.51a23.68 23.68 0 0 1-16.89-6.93l-11.9-11.94a7 7 0 0 1 7.24-11.48 2.45 2.45 0 0 0 .8.14 2.42 2.42 0 0 0 1.7-.71 2.39 2.39 0 0 0 .56-2.49 7 7 0 0 1 1.63-7.24 7 7 0 0 1 7.25-1.62 2.42 2.42 0 0 0 .79.13 2.4 2.4 0 0 0 2.27-3.19 7 7 0 0 1 1.63-7.25 7 7 0 0 1 9.84 0l11.93 11.93a23.79 23.79 0 0 1-16.85 40.65z"/><path class="a" d="M166.89 257.3a4.54 4.54 0 0 1 3.23 1.33l11.27 11.28.66.65a21.44 21.44 0 0 1-30.32 30.32l-.65-.66L139.8 289a4.59 4.59 0 0 1 0-6.46 4.48 4.48 0 0 1 3.23-1.33 4.81 4.81 0 0 1 1.52.26 4.59 4.59 0 0 0 1.59.28 4.81 4.81 0 0 0 4.53-6.39 4.61 4.61 0 0 1 1.06-4.75 4.54 4.54 0 0 1 3.21-1.32 4.7 4.7 0 0 1 1.54.26 4.83 4.83 0 0 0 5-1.13 4.82 4.82 0 0 0 1.13-5 4.61 4.61 0 0 1 1.06-4.75 4.54 4.54 0 0 1 3.23-1.33m0-4.8a9.35 9.35 0 0 0-8.83 12.46 9.57 9.57 0 0 0-3.13-.53 9.34 9.34 0 0 0-8.8 12.46 9.36 9.36 0 0 0-9.73 15.44l11.27 11.28.66.65a26.23 26.23 0 0 0 37.1-37.1l-.65-.66-11.28-11.27a9.3 9.3 0 0 0-6.62-2.74zM70.74 309.51a23.84 23.84 0 0 1-16.85-40.65l11.93-11.93a6.95 6.95 0 0 1 11.48 7.24 2.39 2.39 0 0 0 3.06 3.06 7.08 7.08 0 0 1 2.33-.39 6.92 6.92 0 0 1 4.91 2 7 7 0 0 1 1.63 7.25 2.39 2.39 0 0 0 2.26 3.19 2.44 2.44 0 0 0 .8-.13 7 7 0 0 1 7.24 1.63 7 7 0 0 1 0 9.84L87.6 302.58a23.66 23.66 0 0 1-16.86 6.93z"/><path class="a" d="M70.74 257.3a4.54 4.54 0 0 1 3.26 1.33 4.49 4.49 0 0 1 1.34 3.23 4.56 4.56 0 0 1-.27 1.52 4.8 4.8 0 0 0 6.11 6.12 4.74 4.74 0 0 1 1.54-.26 4.51 4.51 0 0 1 3.21 1.32 4.59 4.59 0 0 1 1.07 4.75 4.8 4.8 0 0 0 4.53 6.39 4.87 4.87 0 0 0 1.59-.27 4.74 4.74 0 0 1 1.54-.26 4.51 4.51 0 0 1 3.21 1.32 4.57 4.57 0 0 1 0 6.46l-11.32 11.28-.65.65a21.44 21.44 0 0 1-30.31-30.32l.65-.65 11.28-11.28a4.51 4.51 0 0 1 3.22-1.33m0-4.8a9.34 9.34 0 0 0-6.62 2.74l-11.27 11.27-.66.66a26.23 26.23 0 0 0 37.1 37.1l.66-.65 11.28-11.28a9.35 9.35 0 0 0-6.61-16 9.57 9.57 0 0 0-3.13.53 9.34 9.34 0 0 0-8.8-12.46 9.51 9.51 0 0 0-3.12.53 9.59 9.59 0 0 0 .54-3.11 9.37 9.37 0 0 0-9.37-9.36z"/></svg>